<svg width="605" height="24" viewBox="0 0 605 24" fill="none" xmlns="http://www.w3.org/2000/svg">
<g opacity="0.26">
<rect width="605" height="24" rx="12" fill="white"/>
</g>
<rect width="79" height="24" rx="12" fill="#7D17FF"/>
<path d="M27.7811 19.3V5.2H29.0111V19.3H27.7811ZM28.2461 17.65C27.4261 17.65 26.6411 17.535 25.8911 17.305C25.1411 17.065 24.5461 16.76 24.1061 16.39L24.7811 14.875C25.2011 15.205 25.7211 15.48 26.3411 15.7C26.9611 15.92 27.5961 16.03 28.2461 16.03C28.7961 16.03 29.2411 15.97 29.5811 15.85C29.9211 15.73 30.1711 15.57 30.3311 15.37C30.4911 15.16 30.5711 14.925 30.5711 14.665C30.5711 14.345 30.4561 14.09 30.2261 13.9C29.9961 13.7 29.6961 13.545 29.3261 13.435C28.9661 13.315 28.5611 13.205 28.1111 13.105C27.6711 13.005 27.2261 12.89 26.7761 12.76C26.3361 12.62 25.9311 12.445 25.5611 12.235C25.2011 12.015 24.9061 11.725 24.6761 11.365C24.4461 11.005 24.3311 10.545 24.3311 9.985C24.3311 9.415 24.4811 8.895 24.7811 8.425C25.0911 7.945 25.5561 7.565 26.1761 7.285C26.8061 6.995 27.6011 6.85 28.5611 6.85C29.1911 6.85 29.8161 6.93 30.4361 7.09C31.0561 7.25 31.5961 7.48 32.0561 7.78L31.4411 9.295C30.9711 9.015 30.4861 8.81 29.9861 8.68C29.4861 8.54 29.0061 8.47 28.5461 8.47C28.0061 8.47 27.5661 8.535 27.2261 8.665C26.8961 8.795 26.6511 8.965 26.4911 9.175C26.3411 9.385 26.2661 9.625 26.2661 9.895C26.2661 10.215 26.3761 10.475 26.5961 10.675C26.8261 10.865 27.1211 11.015 27.4811 11.125C27.8511 11.235 28.2611 11.345 28.7111 11.455C29.1611 11.555 29.6061 11.67 30.0461 11.8C30.4961 11.93 30.9011 12.1 31.2611 12.31C31.6311 12.52 31.9261 12.805 32.1461 13.165C32.3761 13.525 32.4911 13.98 32.4911 14.53C32.4911 15.09 32.3361 15.61 32.0261 16.09C31.7261 16.56 31.2611 16.94 30.6311 17.23C30.0011 17.51 29.2061 17.65 28.2461 17.65ZM38.0546 17.65C37.2246 17.65 36.4746 17.44 35.8046 17.02C35.1446 16.6 34.6246 15.99 34.2446 15.19C33.8646 14.38 33.6746 13.4 33.6746 12.25C33.6746 11.1 33.8646 10.125 34.2446 9.325C34.6246 8.515 35.1446 7.9 35.8046 7.48C36.4746 7.06 37.2246 6.85 38.0546 6.85C38.8946 6.85 39.6446 7.06 40.3046 7.48C40.9646 7.9 41.4846 8.515 41.8646 9.325C42.2546 10.125 42.4496 11.1 42.4496 12.25C42.4496 13.4 42.2546 14.38 41.8646 15.19C41.4846 15.99 40.9646 16.6 40.3046 17.02C39.6446 17.44 38.8946 17.65 38.0546 17.65ZM38.0546 15.955C38.5446 15.955 38.9696 15.825 39.3296 15.565C39.6896 15.295 39.9696 14.885 40.1696 14.335C40.3796 13.785 40.4846 13.09 40.4846 12.25C40.4846 11.4 40.3796 10.705 40.1696 10.165C39.9696 9.615 39.6896 9.21 39.3296 8.95C38.9696 8.68 38.5446 8.545 38.0546 8.545C37.5846 8.545 37.1646 8.68 36.7946 8.95C36.4346 9.21 36.1496 9.615 35.9396 10.165C35.7396 10.705 35.6396 11.4 35.6396 12.25C35.6396 13.09 35.7396 13.785 35.9396 14.335C36.1496 14.885 36.4346 15.295 36.7946 15.565C37.1646 15.825 37.5846 15.955 38.0546 15.955ZM44.7616 17.605C44.4216 17.605 44.1316 17.49 43.8916 17.26C43.6516 17.02 43.5316 16.72 43.5316 16.36C43.5316 15.98 43.6516 15.68 43.8916 15.46C44.1316 15.23 44.4216 15.115 44.7616 15.115C45.1016 15.115 45.3916 15.23 45.6316 15.46C45.8716 15.68 45.9916 15.98 45.9916 16.36C45.9916 16.72 45.8716 17.02 45.6316 17.26C45.3916 17.49 45.1016 17.605 44.7616 17.605ZM48.789 17.5L53.124 7.78L53.634 8.65H47.679L48.609 7.705V10.435H46.794V7H54.954V8.305L50.874 17.5H48.789Z" fill="white"/>
</svg>
