<svg width="605" height="24" viewBox="0 0 605 24" fill="none" xmlns="http://www.w3.org/2000/svg">
<g opacity="0.26">
<rect width="605" height="24" rx="12" fill="white"/>
</g>
<rect width="79" height="24" rx="12" fill="#FBA45A"/>
<path d="M23.5232 19.3V5.2H24.7532V19.3H23.5232ZM23.9882 17.65C23.1682 17.65 22.3832 17.535 21.6332 17.305C20.8832 17.065 20.2882 16.76 19.8482 16.39L20.5232 14.875C20.9432 15.205 21.4632 15.48 22.0832 15.7C22.7032 15.92 23.3382 16.03 23.9882 16.03C24.5382 16.03 24.9832 15.97 25.3232 15.85C25.6632 15.73 25.9132 15.57 26.0732 15.37C26.2332 15.16 26.3132 14.925 26.3132 14.665C26.3132 14.345 26.1982 14.09 25.9682 13.9C25.7382 13.7 25.4382 13.545 25.0682 13.435C24.7082 13.315 24.3032 13.205 23.8532 13.105C23.4132 13.005 22.9682 12.89 22.5182 12.76C22.0782 12.62 21.6732 12.445 21.3032 12.235C20.9432 12.015 20.6482 11.725 20.4182 11.365C20.1882 11.005 20.0732 10.545 20.0732 9.985C20.0732 9.415 20.2232 8.895 20.5232 8.425C20.8332 7.945 21.2982 7.565 21.9182 7.285C22.5482 6.995 23.3432 6.85 24.3032 6.85C24.9332 6.85 25.5582 6.93 26.1782 7.09C26.7982 7.25 27.3382 7.48 27.7982 7.78L27.1832 9.295C26.7132 9.015 26.2282 8.81 25.7282 8.68C25.2282 8.54 24.7482 8.47 24.2882 8.47C23.7482 8.47 23.3082 8.535 22.9682 8.665C22.6382 8.795 22.3932 8.965 22.2332 9.175C22.0832 9.385 22.0082 9.625 22.0082 9.895C22.0082 10.215 22.1182 10.475 22.3382 10.675C22.5682 10.865 22.8632 11.015 23.2232 11.125C23.5932 11.235 24.0032 11.345 24.4532 11.455C24.9032 11.555 25.3482 11.67 25.7882 11.8C26.2382 11.93 26.6432 12.1 27.0032 12.31C27.3732 12.52 27.6682 12.805 27.8882 13.165C28.1182 13.525 28.2332 13.98 28.2332 14.53C28.2332 15.09 28.0782 15.61 27.7682 16.09C27.4682 16.56 27.0032 16.94 26.3732 17.23C25.7432 17.51 24.9482 17.65 23.9882 17.65ZM33.7968 17.65C32.9668 17.65 32.2168 17.44 31.5468 17.02C30.8868 16.6 30.3668 15.99 29.9868 15.19C29.6068 14.38 29.4168 13.4 29.4168 12.25C29.4168 11.1 29.6068 10.125 29.9868 9.325C30.3668 8.515 30.8868 7.9 31.5468 7.48C32.2168 7.06 32.9668 6.85 33.7968 6.85C34.6368 6.85 35.3868 7.06 36.0468 7.48C36.7068 7.9 37.2268 8.515 37.6068 9.325C37.9968 10.125 38.1918 11.1 38.1918 12.25C38.1918 13.4 37.9968 14.38 37.6068 15.19C37.2268 15.99 36.7068 16.6 36.0468 17.02C35.3868 17.44 34.6368 17.65 33.7968 17.65ZM33.7968 15.955C34.2868 15.955 34.7118 15.825 35.0718 15.565C35.4318 15.295 35.7118 14.885 35.9118 14.335C36.1218 13.785 36.2268 13.09 36.2268 12.25C36.2268 11.4 36.1218 10.705 35.9118 10.165C35.7118 9.615 35.4318 9.21 35.0718 8.95C34.7118 8.68 34.2868 8.545 33.7968 8.545C33.3268 8.545 32.9068 8.68 32.5368 8.95C32.1768 9.21 31.8918 9.615 31.6818 10.165C31.4818 10.705 31.3818 11.4 31.3818 12.25C31.3818 13.09 31.4818 13.785 31.6818 14.335C31.8918 14.885 32.1768 15.295 32.5368 15.565C32.9068 15.825 33.3268 15.955 33.7968 15.955ZM40.5038 17.605C40.1638 17.605 39.8738 17.49 39.6338 17.26C39.3938 17.02 39.2738 16.72 39.2738 16.36C39.2738 15.98 39.3938 15.68 39.6338 15.46C39.8738 15.23 40.1638 15.115 40.5038 15.115C40.8438 15.115 41.1338 15.23 41.3738 15.46C41.6138 15.68 41.7338 15.98 41.7338 16.36C41.7338 16.72 41.6138 17.02 41.3738 17.26C41.1338 17.49 40.8438 17.605 40.5038 17.605ZM46.5359 6.85C47.4959 6.85 48.3109 7.055 48.9809 7.465C49.6609 7.865 50.1809 8.45 50.5409 9.22C50.9009 9.99 51.0809 10.94 51.0809 12.07C51.0809 13.27 50.8609 14.285 50.4209 15.115C49.9909 15.945 49.3909 16.575 48.6209 17.005C47.8509 17.435 46.9559 17.65 45.9359 17.65C45.4059 17.65 44.9009 17.595 44.4209 17.485C43.9409 17.375 43.5259 17.205 43.1759 16.975L43.8959 15.505C44.1859 15.695 44.5009 15.83 44.8409 15.91C45.1809 15.98 45.5309 16.015 45.8909 16.015C46.8809 16.015 47.6659 15.71 48.2459 15.1C48.8259 14.49 49.1159 13.59 49.1159 12.4C49.1159 12.21 49.1109 11.99 49.1009 11.74C49.0909 11.48 49.0559 11.22 48.9959 10.96L49.5959 11.62C49.4259 12.03 49.1809 12.375 48.8609 12.655C48.5409 12.925 48.1659 13.13 47.7359 13.27C47.3059 13.41 46.8309 13.48 46.3109 13.48C45.6309 13.48 45.0159 13.35 44.4659 13.09C43.9259 12.82 43.4959 12.445 43.1759 11.965C42.8559 11.475 42.6959 10.905 42.6959 10.255C42.6959 9.555 42.8659 8.955 43.2059 8.455C43.5459 7.945 44.0059 7.55 44.5859 7.27C45.1759 6.99 45.8259 6.85 46.5359 6.85ZM46.6409 8.38C46.2409 8.38 45.8859 8.455 45.5759 8.605C45.2659 8.745 45.0209 8.95 44.8409 9.22C44.6709 9.48 44.5859 9.795 44.5859 10.165C44.5859 10.715 44.7759 11.15 45.1559 11.47C45.5359 11.79 46.0459 11.95 46.6859 11.95C47.1059 11.95 47.4759 11.875 47.7959 11.725C48.1159 11.565 48.3659 11.35 48.5459 11.08C48.7259 10.8 48.8159 10.49 48.8159 10.15C48.8159 9.82 48.7309 9.525 48.5609 9.265C48.3909 8.995 48.1459 8.78 47.8259 8.62C47.5059 8.46 47.1109 8.38 46.6409 8.38ZM55.8802 17.65C55.1402 17.65 54.4152 17.545 53.7052 17.335C53.0052 17.115 52.4152 16.815 51.9352 16.435L52.7602 14.92C53.1402 15.23 53.6002 15.48 54.1402 15.67C54.6902 15.86 55.2602 15.955 55.8502 15.955C56.5402 15.955 57.0802 15.81 57.4702 15.52C57.8702 15.23 58.0702 14.84 58.0702 14.35C58.0702 14.02 57.9852 13.73 57.8152 13.48C57.6552 13.23 57.3652 13.04 56.9452 12.91C56.5352 12.78 55.9702 12.715 55.2502 12.715H52.7152L53.2552 7H59.4202V8.635H53.9752L54.9952 7.705L54.5902 11.98L53.5702 11.065H55.6852C56.7252 11.065 57.5602 11.205 58.1902 11.485C58.8302 11.755 59.2952 12.135 59.5852 12.625C59.8852 13.105 60.0352 13.655 60.0352 14.275C60.0352 14.885 59.8852 15.445 59.5852 15.955C59.2852 16.465 58.8252 16.875 58.2052 17.185C57.5952 17.495 56.8202 17.65 55.8802 17.65Z" fill="white"/>
</svg>
