<svg width="630" height="630" viewBox="0 0 630 630" fill="none" xmlns="http://www.w3.org/2000/svg">
<g clip-path="url(#clip0_2008_12)">
<ellipse cx="314.5" cy="314" rx="312.5" ry="312" fill="#D9D9D9"/>
<path d="M627.399 314.501C627.399 355.592 619.306 396.279 603.581 434.242C587.857 472.204 564.809 506.698 535.754 535.753C506.699 564.808 472.205 587.856 434.243 603.58C396.28 619.305 355.593 627.398 314.502 627.398V314.501H627.399Z" fill="#708C51"/>
<path fill-rule="evenodd" clip-rule="evenodd" d="M434.243 25.4228C396.28 9.69828 355.593 1.60498 314.502 1.60498C273.412 1.60497 232.725 9.69826 194.762 25.4228C156.8 41.1473 122.306 64.1951 93.2513 93.2502C64.1961 122.305 41.1483 156.799 25.4238 194.761C9.69928 232.723 1.60596 273.411 1.60596 314.501L314.502 314.501H627.399C627.399 273.411 619.306 232.724 603.581 194.761C587.857 156.799 564.809 122.305 535.754 93.2502C506.699 64.1951 472.205 41.1473 434.243 25.4228Z" fill="#7D17FF"/>
<path d="M470.951 585.478C435.366 606.023 396.082 619.358 355.344 624.721C314.605 630.084 273.209 627.371 233.519 616.736C193.829 606.101 156.622 587.753 124.023 562.739C91.424 537.725 64.0711 506.535 43.526 470.95L314.502 314.501L470.951 585.478Z" fill="#D81588"/>
<path d="M43.5261 470.951C22.981 435.366 9.64614 396.082 4.28281 355.344C-1.08053 314.605 1.63273 273.209 12.2677 233.519C22.9026 193.829 41.2509 156.622 66.265 124.023C91.2791 91.4243 122.469 64.0713 158.054 43.5263L314.502 314.503L43.5261 470.951Z" fill="#FBA45A"/>
<path d="M93.2512 93.2512C122.306 64.1961 156.8 41.1483 194.762 25.4238C232.725 9.69925 273.412 1.60595 314.503 1.60597C355.593 1.60598 396.28 9.69929 434.243 25.4238C472.205 41.1484 506.699 64.1962 535.754 93.2513L314.502 314.502L93.2512 93.2512Z" fill="#D14EFF"/>
<circle cx="314.513" cy="314.513" r="161.513" fill="#252525" fill-opacity="0.2"/>
<circle cx="315" cy="315" r="85" fill="white"/>
<path d="M294.803 283.411H302.111V285.658H294.803V283.411ZM295.013 289.711H303.308V292H292.283V277.3H303.014V279.589H295.013V289.711ZM313.155 292.21C312.035 292.21 310.992 292.028 310.026 291.664C309.074 291.286 308.241 290.761 307.527 290.089C306.827 289.403 306.281 288.598 305.889 287.674C305.497 286.75 305.301 285.742 305.301 284.65C305.301 283.558 305.497 282.55 305.889 281.626C306.281 280.702 306.834 279.904 307.548 279.232C308.262 278.546 309.095 278.021 310.047 277.657C310.999 277.279 312.042 277.09 313.176 277.09C314.38 277.09 315.479 277.3 316.473 277.72C317.467 278.126 318.307 278.735 318.993 279.547L317.229 281.206C316.697 280.632 316.102 280.205 315.444 279.925C314.786 279.631 314.072 279.484 313.302 279.484C312.532 279.484 311.825 279.61 311.181 279.862C310.551 280.114 309.998 280.471 309.522 280.933C309.06 281.395 308.696 281.941 308.43 282.571C308.178 283.201 308.052 283.894 308.052 284.65C308.052 285.406 308.178 286.099 308.43 286.729C308.696 287.359 309.06 287.905 309.522 288.367C309.998 288.829 310.551 289.186 311.181 289.438C311.825 289.69 312.532 289.816 313.302 289.816C314.072 289.816 314.786 289.676 315.444 289.396C316.102 289.102 316.697 288.661 317.229 288.073L318.993 289.753C318.307 290.551 317.467 291.16 316.473 291.58C315.479 292 314.373 292.21 313.155 292.21ZM321.609 292V277.3H323.856L330.282 288.031H329.106L335.427 277.3H337.674L337.695 292H335.112L335.091 281.353H335.637L330.261 290.32H329.043L323.583 281.353H324.213V292H321.609Z" fill="#010101"/>
<path d="M271.28 325V323.912L275.84 319.512C276.245 319.128 276.544 318.792 276.736 318.504C276.938 318.205 277.072 317.933 277.136 317.688C277.21 317.432 277.248 317.187 277.248 316.952C277.248 316.376 277.045 315.923 276.64 315.592C276.234 315.261 275.642 315.096 274.864 315.096C274.266 315.096 273.728 315.197 273.248 315.4C272.768 315.592 272.352 315.896 272 316.312L270.912 315.368C271.338 314.824 271.909 314.408 272.624 314.12C273.349 313.821 274.144 313.672 275.008 313.672C275.786 313.672 276.464 313.8 277.04 314.056C277.616 314.301 278.058 314.659 278.368 315.128C278.688 315.597 278.848 316.152 278.848 316.792C278.848 317.155 278.8 317.512 278.704 317.864C278.608 318.216 278.426 318.589 278.16 318.984C277.893 319.379 277.509 319.821 277.008 320.312L272.944 324.232L272.56 323.608H279.328V325H271.28ZM282.563 325L287.315 314.472L287.731 315.192H281.075L281.875 314.408V317.192H280.339V313.8H288.787V314.888L284.259 325H282.563ZM289.442 327.368L290.242 324.136L290.45 325.064C290.14 325.064 289.879 324.968 289.666 324.776C289.463 324.584 289.362 324.323 289.362 323.992C289.362 323.672 289.463 323.411 289.666 323.208C289.879 323.005 290.135 322.904 290.434 322.904C290.743 322.904 290.994 323.011 291.186 323.224C291.378 323.427 291.474 323.683 291.474 323.992C291.474 324.099 291.463 324.205 291.442 324.312C291.431 324.408 291.404 324.525 291.362 324.664C291.33 324.792 291.276 324.952 291.202 325.144L290.45 327.368H289.442ZM297.375 325.128C296.501 325.128 295.717 324.904 295.023 324.456C294.341 324.008 293.797 323.357 293.391 322.504C292.997 321.651 292.799 320.616 292.799 319.4C292.799 318.184 292.997 317.149 293.391 316.296C293.797 315.443 294.341 314.792 295.023 314.344C295.717 313.896 296.501 313.672 297.375 313.672C298.239 313.672 299.018 313.896 299.711 314.344C300.405 314.792 300.949 315.443 301.343 316.296C301.738 317.149 301.935 318.184 301.935 319.4C301.935 320.616 301.738 321.651 301.343 322.504C300.949 323.357 300.405 324.008 299.711 324.456C299.018 324.904 298.239 325.128 297.375 325.128ZM297.375 323.704C297.962 323.704 298.474 323.544 298.911 323.224C299.359 322.904 299.706 322.424 299.951 321.784C300.207 321.144 300.335 320.349 300.335 319.4C300.335 318.451 300.207 317.656 299.951 317.016C299.706 316.376 299.359 315.896 298.911 315.576C298.474 315.256 297.962 315.096 297.375 315.096C296.789 315.096 296.271 315.256 295.823 315.576C295.375 315.896 295.023 316.376 294.767 317.016C294.522 317.656 294.399 318.451 294.399 319.4C294.399 320.349 294.522 321.144 294.767 321.784C295.023 322.424 295.375 322.904 295.823 323.224C296.271 323.544 296.789 323.704 297.375 323.704ZM308.047 325.128C307.172 325.128 306.388 324.904 305.695 324.456C305.012 324.008 304.468 323.357 304.063 322.504C303.668 321.651 303.471 320.616 303.471 319.4C303.471 318.184 303.668 317.149 304.063 316.296C304.468 315.443 305.012 314.792 305.695 314.344C306.388 313.896 307.172 313.672 308.047 313.672C308.911 313.672 309.69 313.896 310.383 314.344C311.076 314.792 311.62 315.443 312.015 316.296C312.41 317.149 312.607 318.184 312.607 319.4C312.607 320.616 312.41 321.651 312.015 322.504C311.62 323.357 311.076 324.008 310.383 324.456C309.69 324.904 308.911 325.128 308.047 325.128ZM308.047 323.704C308.634 323.704 309.146 323.544 309.583 323.224C310.031 322.904 310.378 322.424 310.623 321.784C310.879 321.144 311.007 320.349 311.007 319.4C311.007 318.451 310.879 317.656 310.623 317.016C310.378 316.376 310.031 315.896 309.583 315.576C309.146 315.256 308.634 315.096 308.047 315.096C307.46 315.096 306.943 315.256 306.495 315.576C306.047 315.896 305.695 316.376 305.439 317.016C305.194 317.656 305.071 318.451 305.071 319.4C305.071 320.349 305.194 321.144 305.439 321.784C305.695 322.424 306.047 322.904 306.495 323.224C306.943 323.544 307.46 323.704 308.047 323.704ZM318.719 325.128C317.844 325.128 317.06 324.904 316.367 324.456C315.684 324.008 315.14 323.357 314.735 322.504C314.34 321.651 314.143 320.616 314.143 319.4C314.143 318.184 314.34 317.149 314.735 316.296C315.14 315.443 315.684 314.792 316.367 314.344C317.06 313.896 317.844 313.672 318.719 313.672C319.583 313.672 320.362 313.896 321.055 314.344C321.748 314.792 322.292 315.443 322.687 316.296C323.082 317.149 323.279 318.184 323.279 319.4C323.279 320.616 323.082 321.651 322.687 322.504C322.292 323.357 321.748 324.008 321.055 324.456C320.362 324.904 319.583 325.128 318.719 325.128ZM318.719 323.704C319.306 323.704 319.818 323.544 320.255 323.224C320.703 322.904 321.05 322.424 321.295 321.784C321.551 321.144 321.679 320.349 321.679 319.4C321.679 318.451 321.551 317.656 321.295 317.016C321.05 316.376 320.703 315.896 320.255 315.576C319.818 315.256 319.306 315.096 318.719 315.096C318.132 315.096 317.615 315.256 317.167 315.576C316.719 315.896 316.367 316.376 316.111 317.016C315.866 317.656 315.743 318.451 315.743 319.4C315.743 320.349 315.866 321.144 316.111 321.784C316.367 322.424 316.719 322.904 317.167 323.224C317.615 323.544 318.132 323.704 318.719 323.704ZM324.707 327.368L325.507 324.136L325.715 325.064C325.406 325.064 325.145 324.968 324.931 324.776C324.729 324.584 324.627 324.323 324.627 323.992C324.627 323.672 324.729 323.411 324.931 323.208C325.145 323.005 325.401 322.904 325.699 322.904C326.009 322.904 326.259 323.011 326.451 323.224C326.643 323.427 326.739 323.683 326.739 323.992C326.739 324.099 326.729 324.205 326.707 324.312C326.697 324.408 326.67 324.525 326.627 324.664C326.595 324.792 326.542 324.952 326.467 325.144L325.715 327.368H324.707ZM332.641 325.128C331.766 325.128 330.982 324.904 330.289 324.456C329.606 324.008 329.062 323.357 328.657 322.504C328.262 321.651 328.065 320.616 328.065 319.4C328.065 318.184 328.262 317.149 328.657 316.296C329.062 315.443 329.606 314.792 330.289 314.344C330.982 313.896 331.766 313.672 332.641 313.672C333.505 313.672 334.284 313.896 334.977 314.344C335.67 314.792 336.214 315.443 336.609 316.296C337.004 317.149 337.201 318.184 337.201 319.4C337.201 320.616 337.004 321.651 336.609 322.504C336.214 323.357 335.67 324.008 334.977 324.456C334.284 324.904 333.505 325.128 332.641 325.128ZM332.641 323.704C333.228 323.704 333.74 323.544 334.177 323.224C334.625 322.904 334.972 322.424 335.217 321.784C335.473 321.144 335.601 320.349 335.601 319.4C335.601 318.451 335.473 317.656 335.217 317.016C334.972 316.376 334.625 315.896 334.177 315.576C333.74 315.256 333.228 315.096 332.641 315.096C332.054 315.096 331.537 315.256 331.089 315.576C330.641 315.896 330.289 316.376 330.033 317.016C329.788 317.656 329.665 318.451 329.665 319.4C329.665 320.349 329.788 321.144 330.033 321.784C330.289 322.424 330.641 322.904 331.089 323.224C331.537 323.544 332.054 323.704 332.641 323.704ZM343.313 325.128C342.438 325.128 341.654 324.904 340.961 324.456C340.278 324.008 339.734 323.357 339.329 322.504C338.934 321.651 338.737 320.616 338.737 319.4C338.737 318.184 338.934 317.149 339.329 316.296C339.734 315.443 340.278 314.792 340.961 314.344C341.654 313.896 342.438 313.672 343.313 313.672C344.177 313.672 344.955 313.896 345.649 314.344C346.342 314.792 346.886 315.443 347.281 316.296C347.675 317.149 347.873 318.184 347.873 319.4C347.873 320.616 347.675 321.651 347.281 322.504C346.886 323.357 346.342 324.008 345.649 324.456C344.955 324.904 344.177 325.128 343.313 325.128ZM343.313 323.704C343.899 323.704 344.411 323.544 344.849 323.224C345.297 322.904 345.643 322.424 345.889 321.784C346.145 321.144 346.273 320.349 346.273 319.4C346.273 318.451 346.145 317.656 345.889 317.016C345.643 316.376 345.297 315.896 344.849 315.576C344.411 315.256 343.899 315.096 343.313 315.096C342.726 315.096 342.209 315.256 341.761 315.576C341.313 315.896 340.961 316.376 340.705 317.016C340.459 317.656 340.337 318.451 340.337 319.4C340.337 320.349 340.459 321.144 340.705 321.784C340.961 322.424 341.313 322.904 341.761 323.224C342.209 323.544 342.726 323.704 343.313 323.704ZM353.985 325.128C353.11 325.128 352.326 324.904 351.633 324.456C350.95 324.008 350.406 323.357 350.001 322.504C349.606 321.651 349.409 320.616 349.409 319.4C349.409 318.184 349.606 317.149 350.001 316.296C350.406 315.443 350.95 314.792 351.633 314.344C352.326 313.896 353.11 313.672 353.985 313.672C354.849 313.672 355.627 313.896 356.321 314.344C357.014 314.792 357.558 315.443 357.953 316.296C358.347 317.149 358.545 318.184 358.545 319.4C358.545 320.616 358.347 321.651 357.953 322.504C357.558 323.357 357.014 324.008 356.321 324.456C355.627 324.904 354.849 325.128 353.985 325.128ZM353.985 323.704C354.571 323.704 355.083 323.544 355.521 323.224C355.969 322.904 356.315 322.424 356.561 321.784C356.817 321.144 356.945 320.349 356.945 319.4C356.945 318.451 356.817 317.656 356.561 317.016C356.315 316.376 355.969 315.896 355.521 315.576C355.083 315.256 354.571 315.096 353.985 315.096C353.398 315.096 352.881 315.256 352.433 315.576C351.985 315.896 351.633 316.376 351.377 317.016C351.131 317.656 351.009 318.451 351.009 319.4C351.009 320.349 351.131 321.144 351.377 321.784C351.633 322.424 351.985 322.904 352.433 323.224C352.881 323.544 353.398 323.704 353.985 323.704ZM269.099 350V340.192H265.259V338.8H274.523V340.192H270.683V350H269.099ZM278.799 350.096C277.946 350.096 277.188 349.909 276.527 349.536C275.866 349.163 275.343 348.651 274.959 348C274.575 347.339 274.383 346.592 274.383 345.76C274.383 344.917 274.575 344.171 274.959 343.52C275.343 342.869 275.866 342.363 276.527 342C277.188 341.627 277.946 341.44 278.799 341.44C279.642 341.44 280.394 341.627 281.055 342C281.727 342.363 282.25 342.869 282.623 343.52C283.007 344.16 283.199 344.907 283.199 345.76C283.199 346.603 283.007 347.349 282.623 348C282.25 348.651 281.727 349.163 281.055 349.536C280.394 349.909 279.642 350.096 278.799 350.096ZM278.799 348.752C279.343 348.752 279.828 348.629 280.255 348.384C280.692 348.139 281.034 347.792 281.279 347.344C281.524 346.885 281.647 346.357 281.647 345.76C281.647 345.152 281.524 344.629 281.279 344.192C281.034 343.744 280.692 343.397 280.255 343.152C279.828 342.907 279.343 342.784 278.799 342.784C278.255 342.784 277.77 342.907 277.343 343.152C276.916 343.397 276.575 343.744 276.319 344.192C276.063 344.629 275.935 345.152 275.935 345.76C275.935 346.357 276.063 346.885 276.319 347.344C276.575 347.792 276.916 348.139 277.343 348.384C277.77 348.629 278.255 348.752 278.799 348.752ZM288.235 350.096C287.382 350.096 286.721 349.867 286.251 349.408C285.782 348.949 285.547 348.293 285.547 347.44V339.664H287.083V347.376C287.083 347.835 287.195 348.187 287.419 348.432C287.654 348.677 287.985 348.8 288.411 348.8C288.891 348.8 289.291 348.667 289.611 348.4L290.091 349.504C289.857 349.707 289.574 349.856 289.243 349.952C288.923 350.048 288.587 350.096 288.235 350.096ZM284.107 342.784V341.52H289.515V342.784H284.107ZM297.212 350V348.208L297.132 347.872V344.816C297.132 344.165 296.94 343.664 296.556 343.312C296.183 342.949 295.618 342.768 294.86 342.768C294.359 342.768 293.868 342.853 293.388 343.024C292.908 343.184 292.503 343.403 292.172 343.68L291.532 342.528C291.97 342.176 292.492 341.909 293.1 341.728C293.719 341.536 294.364 341.44 295.036 341.44C296.199 341.44 297.095 341.723 297.724 342.288C298.354 342.853 298.668 343.717 298.668 344.88V350H297.212ZM294.428 350.096C293.799 350.096 293.244 349.989 292.764 349.776C292.295 349.563 291.932 349.269 291.676 348.896C291.42 348.512 291.292 348.08 291.292 347.6C291.292 347.141 291.399 346.725 291.612 346.352C291.836 345.979 292.194 345.68 292.684 345.456C293.186 345.232 293.858 345.12 294.7 345.12H297.388V346.224H294.764C293.996 346.224 293.479 346.352 293.212 346.608C292.946 346.864 292.812 347.173 292.812 347.536C292.812 347.952 292.978 348.288 293.308 348.544C293.639 348.789 294.098 348.912 294.684 348.912C295.26 348.912 295.762 348.784 296.188 348.528C296.626 348.272 296.94 347.899 297.132 347.408L297.436 348.464C297.234 348.965 296.876 349.365 296.364 349.664C295.852 349.952 295.207 350.096 294.428 350.096ZM301.511 350V338.128H303.047V350H301.511ZM313.764 350.128C312.911 350.128 312.095 350 311.316 349.744C310.538 349.477 309.924 349.136 309.476 348.72L310.068 347.472C310.495 347.845 311.039 348.155 311.7 348.4C312.362 348.645 313.05 348.768 313.764 348.768C314.415 348.768 314.943 348.693 315.348 348.544C315.754 348.395 316.052 348.192 316.244 347.936C316.436 347.669 316.532 347.371 316.532 347.04C316.532 346.656 316.404 346.347 316.148 346.112C315.903 345.877 315.578 345.691 315.172 345.552C314.778 345.403 314.34 345.275 313.86 345.168C313.38 345.061 312.895 344.939 312.404 344.8C311.924 344.651 311.482 344.464 311.076 344.24C310.682 344.016 310.362 343.717 310.116 343.344C309.871 342.96 309.748 342.469 309.748 341.872C309.748 341.296 309.898 340.768 310.196 340.288C310.506 339.797 310.975 339.408 311.604 339.12C312.244 338.821 313.055 338.672 314.036 338.672C314.687 338.672 315.332 338.757 315.972 338.928C316.612 339.099 317.167 339.344 317.636 339.664L317.108 340.944C316.628 340.624 316.122 340.395 315.588 340.256C315.055 340.107 314.538 340.032 314.036 340.032C313.407 340.032 312.89 340.112 312.484 340.272C312.079 340.432 311.78 340.645 311.588 340.912C311.407 341.179 311.316 341.477 311.316 341.808C311.316 342.203 311.439 342.517 311.684 342.752C311.94 342.987 312.266 343.173 312.66 343.312C313.066 343.451 313.508 343.579 313.988 343.696C314.468 343.803 314.948 343.925 315.428 344.064C315.919 344.203 316.362 344.384 316.756 344.608C317.162 344.832 317.487 345.131 317.732 345.504C317.978 345.877 318.1 346.357 318.1 346.944C318.1 347.509 317.946 348.037 317.636 348.528C317.327 349.008 316.847 349.397 316.196 349.696C315.556 349.984 314.746 350.128 313.764 350.128ZM323.782 350.096C323.056 350.096 322.416 349.963 321.862 349.696C321.318 349.429 320.891 349.024 320.582 348.48C320.283 347.925 320.134 347.232 320.134 346.4V341.52H321.67V346.224C321.67 347.056 321.867 347.68 322.262 348.096C322.667 348.512 323.232 348.72 323.958 348.72C324.491 348.72 324.955 348.613 325.35 348.4C325.744 348.176 326.048 347.856 326.262 347.44C326.475 347.013 326.582 346.501 326.582 345.904V341.52H328.118V350H326.662V347.712L326.902 348.32C326.624 348.885 326.208 349.323 325.654 349.632C325.099 349.941 324.475 350.096 323.782 350.096ZM335.538 350.096C334.834 350.096 334.189 349.936 333.602 349.616C333.026 349.285 332.562 348.8 332.21 348.16C331.869 347.52 331.698 346.72 331.698 345.76C331.698 344.8 331.863 344 332.194 343.36C332.535 342.72 332.994 342.24 333.57 341.92C334.157 341.6 334.813 341.44 335.538 341.44C336.37 341.44 337.106 341.621 337.746 341.984C338.386 342.347 338.893 342.853 339.266 343.504C339.639 344.144 339.826 344.896 339.826 345.76C339.826 346.624 339.639 347.381 339.266 348.032C338.893 348.683 338.386 349.189 337.746 349.552C337.106 349.915 336.37 350.096 335.538 350.096ZM331.042 353.104V341.52H332.514V343.808L332.418 345.776L332.578 347.744V353.104H331.042ZM335.41 348.752C335.954 348.752 336.439 348.629 336.866 348.384C337.303 348.139 337.645 347.792 337.89 347.344C338.146 346.885 338.274 346.357 338.274 345.76C338.274 345.152 338.146 344.629 337.89 344.192C337.645 343.744 337.303 343.397 336.866 343.152C336.439 342.907 335.954 342.784 335.41 342.784C334.877 342.784 334.391 342.907 333.954 343.152C333.527 343.397 333.186 343.744 332.93 344.192C332.685 344.629 332.562 345.152 332.562 345.76C332.562 346.357 332.685 346.885 332.93 347.344C333.186 347.792 333.527 348.139 333.954 348.384C334.391 348.629 334.877 348.752 335.41 348.752ZM346.444 350.096C345.74 350.096 345.095 349.936 344.508 349.616C343.932 349.285 343.468 348.8 343.116 348.16C342.775 347.52 342.604 346.72 342.604 345.76C342.604 344.8 342.77 344 343.1 343.36C343.442 342.72 343.9 342.24 344.476 341.92C345.063 341.6 345.719 341.44 346.444 341.44C347.276 341.44 348.012 341.621 348.652 341.984C349.292 342.347 349.799 342.853 350.172 343.504C350.546 344.144 350.732 344.896 350.732 345.76C350.732 346.624 350.546 347.381 350.172 348.032C349.799 348.683 349.292 349.189 348.652 349.552C348.012 349.915 347.276 350.096 346.444 350.096ZM341.948 353.104V341.52H343.42V343.808L343.324 345.776L343.484 347.744V353.104H341.948ZM346.316 348.752C346.86 348.752 347.346 348.629 347.772 348.384C348.21 348.139 348.551 347.792 348.796 347.344C349.052 346.885 349.18 346.357 349.18 345.76C349.18 345.152 349.052 344.629 348.796 344.192C348.551 343.744 348.21 343.397 347.772 343.152C347.346 342.907 346.86 342.784 346.316 342.784C345.783 342.784 345.298 342.907 344.86 343.152C344.434 343.397 344.092 343.744 343.836 344.192C343.591 344.629 343.468 345.152 343.468 345.76C343.468 346.357 343.591 346.885 343.836 347.344C344.092 347.792 344.434 348.139 344.86 348.384C345.298 348.629 345.783 348.752 346.316 348.752ZM352.854 350V338.128H354.39V350H352.854ZM357.691 353.2C357.286 353.2 356.891 353.131 356.507 352.992C356.123 352.864 355.793 352.672 355.515 352.416L356.171 351.264C356.385 351.467 356.619 351.621 356.875 351.728C357.131 351.835 357.403 351.888 357.691 351.888C358.065 351.888 358.374 351.792 358.619 351.6C358.865 351.408 359.094 351.067 359.307 350.576L359.835 349.408L359.995 349.216L363.323 341.52H364.827L360.715 350.848C360.47 351.445 360.193 351.915 359.883 352.256C359.585 352.597 359.254 352.837 358.891 352.976C358.529 353.125 358.129 353.2 357.691 353.2ZM359.707 350.272L355.835 341.52H357.435L360.731 349.072L359.707 350.272Z" fill="#010101"/>
<path d="M496.152 246.08V214.12H499.552V246.08H496.152ZM497.376 242.408C495.472 242.408 493.647 242.159 491.902 241.66C490.157 241.139 488.751 240.47 487.686 239.654L489.556 235.506C490.576 236.231 491.777 236.832 493.16 237.308C494.565 237.761 495.982 237.988 497.41 237.988C498.498 237.988 499.371 237.886 500.028 237.682C500.708 237.455 501.207 237.149 501.524 236.764C501.841 236.379 502 235.937 502 235.438C502 234.803 501.751 234.305 501.252 233.942C500.753 233.557 500.096 233.251 499.28 233.024C498.464 232.775 497.557 232.548 496.56 232.344C495.585 232.117 494.599 231.845 493.602 231.528C492.627 231.211 491.732 230.803 490.916 230.304C490.1 229.805 489.431 229.148 488.91 228.332C488.411 227.516 488.162 226.473 488.162 225.204C488.162 223.844 488.525 222.609 489.25 221.498C489.998 220.365 491.109 219.469 492.582 218.812C494.078 218.132 495.948 217.792 498.192 217.792C499.688 217.792 501.161 217.973 502.612 218.336C504.063 218.676 505.343 219.197 506.454 219.9L504.754 224.082C503.643 223.447 502.533 222.983 501.422 222.688C500.311 222.371 499.223 222.212 498.158 222.212C497.093 222.212 496.22 222.337 495.54 222.586C494.86 222.835 494.373 223.164 494.078 223.572C493.783 223.957 493.636 224.411 493.636 224.932C493.636 225.544 493.885 226.043 494.384 226.428C494.883 226.791 495.54 227.085 496.356 227.312C497.172 227.539 498.067 227.765 499.042 227.992C500.039 228.219 501.025 228.479 502 228.774C502.997 229.069 503.904 229.465 504.72 229.964C505.536 230.463 506.193 231.12 506.692 231.936C507.213 232.752 507.474 233.783 507.474 235.03C507.474 236.367 507.1 237.591 506.352 238.702C505.604 239.813 504.482 240.708 502.986 241.388C501.513 242.068 499.643 242.408 497.376 242.408ZM519.942 242.408C517.992 242.408 516.247 241.932 514.706 240.98C513.164 240.005 511.952 238.6 511.068 236.764C510.184 234.928 509.742 232.707 509.742 230.1C509.742 227.493 510.184 225.272 511.068 223.436C511.952 221.6 513.164 220.206 514.706 219.254C516.247 218.279 517.992 217.792 519.942 217.792C521.914 217.792 523.659 218.279 525.178 219.254C526.719 220.206 527.932 221.6 528.816 223.436C529.7 225.272 530.142 227.493 530.142 230.1C530.142 232.707 529.7 234.928 528.816 236.764C527.932 238.6 526.719 240.005 525.178 240.98C523.659 241.932 521.914 242.408 519.942 242.408ZM519.942 237.75C520.871 237.75 521.676 237.489 522.356 236.968C523.058 236.447 523.602 235.619 523.988 234.486C524.396 233.353 524.6 231.891 524.6 230.1C524.6 228.309 524.396 226.847 523.988 225.714C523.602 224.581 523.058 223.753 522.356 223.232C521.676 222.711 520.871 222.45 519.942 222.45C519.035 222.45 518.23 222.711 517.528 223.232C516.848 223.753 516.304 224.581 515.896 225.714C515.51 226.847 515.318 228.309 515.318 230.1C515.318 231.891 515.51 233.353 515.896 234.486C516.304 235.619 516.848 236.447 517.528 236.968C518.23 237.489 519.035 237.75 519.942 237.75ZM535.514 242.272C534.607 242.272 533.825 241.966 533.168 241.354C532.533 240.719 532.216 239.915 532.216 238.94C532.216 237.965 532.533 237.183 533.168 236.594C533.825 235.982 534.607 235.676 535.514 235.676C536.443 235.676 537.225 235.982 537.86 236.594C538.495 237.183 538.812 237.965 538.812 238.94C538.812 239.915 538.495 240.719 537.86 241.354C537.225 241.966 536.443 242.272 535.514 242.272ZM544.528 242L554.116 220.308L555.544 222.688H542.726L545.174 220.104V226.564H540.278V218.2H559.352V221.77L550.512 242H544.528Z" fill="white"/>
<path d="M464.477 444.08V412.12H467.877V444.08H464.477ZM465.701 440.408C463.797 440.408 461.972 440.159 460.227 439.66C458.482 439.139 457.076 438.47 456.011 437.654L457.881 433.506C458.901 434.231 460.102 434.832 461.485 435.308C462.89 435.761 464.307 435.988 465.735 435.988C466.823 435.988 467.696 435.886 468.353 435.682C469.033 435.455 469.532 435.149 469.849 434.764C470.166 434.379 470.325 433.937 470.325 433.438C470.325 432.803 470.076 432.305 469.577 431.942C469.078 431.557 468.421 431.251 467.605 431.024C466.789 430.775 465.882 430.548 464.885 430.344C463.91 430.117 462.924 429.845 461.927 429.528C460.952 429.211 460.057 428.803 459.241 428.304C458.425 427.805 457.756 427.148 457.235 426.332C456.736 425.516 456.487 424.473 456.487 423.204C456.487 421.844 456.85 420.609 457.575 419.498C458.323 418.365 459.434 417.469 460.907 416.812C462.403 416.132 464.273 415.792 466.517 415.792C468.013 415.792 469.486 415.973 470.937 416.336C472.388 416.676 473.668 417.197 474.779 417.9L473.079 422.082C471.968 421.447 470.858 420.983 469.747 420.688C468.636 420.371 467.548 420.212 466.483 420.212C465.418 420.212 464.545 420.337 463.865 420.586C463.185 420.835 462.698 421.164 462.403 421.572C462.108 421.957 461.961 422.411 461.961 422.932C461.961 423.544 462.21 424.043 462.709 424.428C463.208 424.791 463.865 425.085 464.681 425.312C465.497 425.539 466.392 425.765 467.367 425.992C468.364 426.219 469.35 426.479 470.325 426.774C471.322 427.069 472.229 427.465 473.045 427.964C473.861 428.463 474.518 429.12 475.017 429.936C475.538 430.752 475.799 431.783 475.799 433.03C475.799 434.367 475.425 435.591 474.677 436.702C473.929 437.813 472.807 438.708 471.311 439.388C469.838 440.068 467.968 440.408 465.701 440.408ZM488.267 440.408C486.317 440.408 484.572 439.932 483.031 438.98C481.489 438.005 480.277 436.6 479.393 434.764C478.509 432.928 478.067 430.707 478.067 428.1C478.067 425.493 478.509 423.272 479.393 421.436C480.277 419.6 481.489 418.206 483.031 417.254C484.572 416.279 486.317 415.792 488.267 415.792C490.239 415.792 491.984 416.279 493.503 417.254C495.044 418.206 496.257 419.6 497.141 421.436C498.025 423.272 498.467 425.493 498.467 428.1C498.467 430.707 498.025 432.928 497.141 434.764C496.257 436.6 495.044 438.005 493.503 438.98C491.984 439.932 490.239 440.408 488.267 440.408ZM488.267 435.75C489.196 435.75 490.001 435.489 490.681 434.968C491.383 434.447 491.927 433.619 492.313 432.486C492.721 431.353 492.925 429.891 492.925 428.1C492.925 426.309 492.721 424.847 492.313 423.714C491.927 422.581 491.383 421.753 490.681 421.232C490.001 420.711 489.196 420.45 488.267 420.45C487.36 420.45 486.555 420.711 485.853 421.232C485.173 421.753 484.629 422.581 484.221 423.714C483.835 424.847 483.643 426.309 483.643 428.1C483.643 429.891 483.835 431.353 484.221 432.486C484.629 433.619 485.173 434.447 485.853 434.968C486.555 435.489 487.36 435.75 488.267 435.75ZM503.839 440.272C502.933 440.272 502.151 439.966 501.493 439.354C500.859 438.719 500.541 437.915 500.541 436.94C500.541 435.965 500.859 435.183 501.493 434.594C502.151 433.982 502.933 433.676 503.839 433.676C504.769 433.676 505.551 433.982 506.185 434.594C506.82 435.183 507.137 435.965 507.137 436.94C507.137 437.915 506.82 438.719 506.185 439.354C505.551 439.966 504.769 440.272 503.839 440.272ZM517.974 415.792C520.172 415.792 522.065 416.245 523.652 417.152C525.238 418.059 526.462 419.385 527.324 421.13C528.185 422.853 528.616 425.006 528.616 427.59C528.616 430.333 528.094 432.656 527.052 434.56C526.032 436.464 524.615 437.915 522.802 438.912C520.988 439.909 518.88 440.408 516.478 440.408C515.231 440.408 514.03 440.272 512.874 440C511.718 439.728 510.72 439.32 509.882 438.776L511.922 434.73C512.579 435.183 513.282 435.501 514.03 435.682C514.778 435.841 515.56 435.92 516.376 435.92C518.416 435.92 520.036 435.297 521.238 434.05C522.462 432.803 523.074 430.956 523.074 428.508C523.074 428.1 523.062 427.647 523.04 427.148C523.017 426.649 522.96 426.151 522.87 425.652L524.366 427.08C523.98 427.964 523.436 428.712 522.734 429.324C522.031 429.913 521.215 430.367 520.286 430.684C519.356 430.979 518.314 431.126 517.158 431.126C515.639 431.126 514.256 430.82 513.01 430.208C511.786 429.596 510.8 428.735 510.052 427.624C509.326 426.513 508.964 425.21 508.964 423.714C508.964 422.082 509.36 420.677 510.154 419.498C510.97 418.319 512.058 417.413 513.418 416.778C514.8 416.121 516.319 415.792 517.974 415.792ZM518.314 419.906C517.52 419.906 516.829 420.053 516.24 420.348C515.65 420.62 515.186 421.028 514.846 421.572C514.506 422.093 514.336 422.717 514.336 423.442C514.336 424.53 514.698 425.403 515.424 426.06C516.172 426.695 517.158 427.012 518.382 427.012C519.175 427.012 519.878 426.865 520.49 426.57C521.124 426.253 521.612 425.822 521.952 425.278C522.292 424.734 522.462 424.122 522.462 423.442C522.462 422.762 522.292 422.161 521.952 421.64C521.634 421.096 521.17 420.677 520.558 420.382C519.946 420.065 519.198 419.906 518.314 419.906ZM539.35 440.408C537.695 440.408 536.052 440.193 534.42 439.762C532.811 439.309 531.428 438.674 530.272 437.858L532.448 433.642C533.355 434.299 534.397 434.821 535.576 435.206C536.777 435.591 537.99 435.784 539.214 435.784C540.597 435.784 541.685 435.512 542.478 434.968C543.271 434.424 543.668 433.665 543.668 432.69C543.668 432.078 543.509 431.534 543.192 431.058C542.875 430.582 542.308 430.219 541.492 429.97C540.699 429.721 539.577 429.596 538.126 429.596H532.04L533.264 416.2H547.782V420.62H535.236L538.092 418.104L537.242 427.658L534.386 425.142H539.418C541.775 425.142 543.668 425.471 545.096 426.128C546.547 426.763 547.601 427.635 548.258 428.746C548.915 429.857 549.244 431.115 549.244 432.52C549.244 433.925 548.893 435.229 548.19 436.43C547.487 437.609 546.399 438.572 544.926 439.32C543.475 440.045 541.617 440.408 539.35 440.408Z" fill="white"/>
<path d="M233.31 548.08V516.12H236.71V548.08H233.31ZM234.534 544.408C232.63 544.408 230.805 544.159 229.06 543.66C227.315 543.139 225.909 542.47 224.844 541.654L226.714 537.506C227.734 538.231 228.935 538.832 230.318 539.308C231.723 539.761 233.14 539.988 234.568 539.988C235.656 539.988 236.529 539.886 237.186 539.682C237.866 539.455 238.365 539.149 238.682 538.764C238.999 538.379 239.158 537.937 239.158 537.438C239.158 536.803 238.909 536.305 238.41 535.942C237.911 535.557 237.254 535.251 236.438 535.024C235.622 534.775 234.715 534.548 233.718 534.344C232.743 534.117 231.757 533.845 230.76 533.528C229.785 533.211 228.89 532.803 228.074 532.304C227.258 531.805 226.589 531.148 226.068 530.332C225.569 529.516 225.32 528.473 225.32 527.204C225.32 525.844 225.683 524.609 226.408 523.498C227.156 522.365 228.267 521.469 229.74 520.812C231.236 520.132 233.106 519.792 235.35 519.792C236.846 519.792 238.319 519.973 239.77 520.336C241.221 520.676 242.501 521.197 243.612 521.9L241.912 526.082C240.801 525.447 239.691 524.983 238.58 524.688C237.469 524.371 236.381 524.212 235.316 524.212C234.251 524.212 233.378 524.337 232.698 524.586C232.018 524.835 231.531 525.164 231.236 525.572C230.941 525.957 230.794 526.411 230.794 526.932C230.794 527.544 231.043 528.043 231.542 528.428C232.041 528.791 232.698 529.085 233.514 529.312C234.33 529.539 235.225 529.765 236.2 529.992C237.197 530.219 238.183 530.479 239.158 530.774C240.155 531.069 241.062 531.465 241.878 531.964C242.694 532.463 243.351 533.12 243.85 533.936C244.371 534.752 244.632 535.783 244.632 537.03C244.632 538.367 244.258 539.591 243.51 540.702C242.762 541.813 241.64 542.708 240.144 543.388C238.671 544.068 236.801 544.408 234.534 544.408ZM250.24 544V522.24L252.62 524.62H245.48V520.2H255.748V544H250.24ZM263.01 544.272C262.103 544.272 261.321 543.966 260.664 543.354C260.029 542.719 259.712 541.915 259.712 540.94C259.712 539.965 260.029 539.183 260.664 538.594C261.321 537.982 262.103 537.676 263.01 537.676C263.939 537.676 264.721 537.982 265.356 538.594C265.991 539.183 266.308 539.965 266.308 540.94C266.308 541.915 265.991 542.719 265.356 543.354C264.721 543.966 263.939 544.272 263.01 544.272ZM278.549 544.408C276.6 544.408 274.854 543.932 273.313 542.98C271.772 542.005 270.559 540.6 269.675 538.764C268.791 536.928 268.349 534.707 268.349 532.1C268.349 529.493 268.791 527.272 269.675 525.436C270.559 523.6 271.772 522.206 273.313 521.254C274.854 520.279 276.6 519.792 278.549 519.792C280.521 519.792 282.266 520.279 283.785 521.254C285.326 522.206 286.539 523.6 287.423 525.436C288.307 527.272 288.749 529.493 288.749 532.1C288.749 534.707 288.307 536.928 287.423 538.764C286.539 540.6 285.326 542.005 283.785 542.98C282.266 543.932 280.521 544.408 278.549 544.408ZM278.549 539.75C279.478 539.75 280.283 539.489 280.963 538.968C281.666 538.447 282.21 537.619 282.595 536.486C283.003 535.353 283.207 533.891 283.207 532.1C283.207 530.309 283.003 528.847 282.595 527.714C282.21 526.581 281.666 525.753 280.963 525.232C280.283 524.711 279.478 524.45 278.549 524.45C277.642 524.45 276.838 524.711 276.135 525.232C275.455 525.753 274.911 526.581 274.503 527.714C274.118 528.847 273.925 530.309 273.925 532.1C273.925 533.891 274.118 535.353 274.503 536.486C274.911 537.619 275.455 538.447 276.135 538.968C276.838 539.489 277.642 539.75 278.549 539.75ZM299.517 544.408C297.862 544.408 296.219 544.193 294.587 543.762C292.978 543.309 291.595 542.674 290.439 541.858L292.615 537.642C293.522 538.299 294.564 538.821 295.743 539.206C296.944 539.591 298.157 539.784 299.381 539.784C300.764 539.784 301.852 539.512 302.645 538.968C303.438 538.424 303.835 537.665 303.835 536.69C303.835 536.078 303.676 535.534 303.359 535.058C303.042 534.582 302.475 534.219 301.659 533.97C300.866 533.721 299.744 533.596 298.293 533.596H292.207L293.431 520.2H307.949V524.62H295.403L298.259 522.104L297.409 531.658L294.553 529.142H299.585C301.942 529.142 303.835 529.471 305.263 530.128C306.714 530.763 307.768 531.635 308.425 532.746C309.082 533.857 309.411 535.115 309.411 536.52C309.411 537.925 309.06 539.229 308.357 540.43C307.654 541.609 306.566 542.572 305.093 543.32C303.642 544.045 301.784 544.408 299.517 544.408Z" fill="white"/>
<path d="M61.3296 304.08V272.12H64.7296V304.08H61.3296ZM62.5536 300.408C60.6496 300.408 58.825 300.159 57.0796 299.66C55.3343 299.139 53.929 298.47 52.8636 297.654L54.7336 293.506C55.7536 294.231 56.955 294.832 58.3376 295.308C59.743 295.761 61.1596 295.988 62.5876 295.988C63.6756 295.988 64.5483 295.886 65.2056 295.682C65.8856 295.455 66.3843 295.149 66.7016 294.764C67.019 294.379 67.1776 293.937 67.1776 293.438C67.1776 292.803 66.9283 292.305 66.4296 291.942C65.931 291.557 65.2736 291.251 64.4576 291.024C63.6416 290.775 62.735 290.548 61.7376 290.344C60.763 290.117 59.777 289.845 58.7796 289.528C57.805 289.211 56.9096 288.803 56.0936 288.304C55.2776 287.805 54.609 287.148 54.0876 286.332C53.589 285.516 53.3396 284.473 53.3396 283.204C53.3396 281.844 53.7023 280.609 54.4276 279.498C55.1756 278.365 56.2863 277.469 57.7596 276.812C59.2556 276.132 61.1256 275.792 63.3696 275.792C64.8656 275.792 66.339 275.973 67.7896 276.336C69.2403 276.676 70.521 277.197 71.6316 277.9L69.9316 282.082C68.821 281.447 67.7103 280.983 66.5996 280.688C65.489 280.371 64.401 280.212 63.3356 280.212C62.2703 280.212 61.3976 280.337 60.7176 280.586C60.0376 280.835 59.5503 281.164 59.2556 281.572C58.961 281.957 58.8136 282.411 58.8136 282.932C58.8136 283.544 59.063 284.043 59.5616 284.428C60.0603 284.791 60.7176 285.085 61.5336 285.312C62.3496 285.539 63.245 285.765 64.2196 285.992C65.217 286.219 66.203 286.479 67.1776 286.774C68.175 287.069 69.0816 287.465 69.8976 287.964C70.7136 288.463 71.371 289.12 71.8696 289.936C72.391 290.752 72.6516 291.783 72.6516 293.03C72.6516 294.367 72.2776 295.591 71.5296 296.702C70.7816 297.813 69.6596 298.708 68.1636 299.388C66.6903 300.068 64.8203 300.408 62.5536 300.408ZM78.2592 300V278.24L80.6392 280.62H73.4992V276.2H83.7672V300H78.2592ZM91.0297 300.272C90.123 300.272 89.341 299.966 88.6837 299.354C88.049 298.719 87.7317 297.915 87.7317 296.94C87.7317 295.965 88.049 295.183 88.6837 294.594C89.341 293.982 90.123 293.676 91.0297 293.676C91.959 293.676 92.741 293.982 93.3757 294.594C94.0104 295.183 94.3277 295.965 94.3277 296.94C94.3277 297.915 94.0104 298.719 93.3757 299.354C92.741 299.966 91.959 300.272 91.0297 300.272ZM99.9077 300V278.24L102.288 280.62H95.1477V276.2H105.416V300H99.9077ZM119.75 300.408C117.801 300.408 116.055 299.932 114.514 298.98C112.973 298.005 111.76 296.6 110.876 294.764C109.992 292.928 109.55 290.707 109.55 288.1C109.55 285.493 109.992 283.272 110.876 281.436C111.76 279.6 112.973 278.206 114.514 277.254C116.055 276.279 117.801 275.792 119.75 275.792C121.722 275.792 123.467 276.279 124.986 277.254C126.527 278.206 127.74 279.6 128.624 281.436C129.508 283.272 129.95 285.493 129.95 288.1C129.95 290.707 129.508 292.928 128.624 294.764C127.74 296.6 126.527 298.005 124.986 298.98C123.467 299.932 121.722 300.408 119.75 300.408ZM119.75 295.75C120.679 295.75 121.484 295.489 122.164 294.968C122.867 294.447 123.411 293.619 123.796 292.486C124.204 291.353 124.408 289.891 124.408 288.1C124.408 286.309 124.204 284.847 123.796 283.714C123.411 282.581 122.867 281.753 122.164 281.232C121.484 280.711 120.679 280.45 119.75 280.45C118.843 280.45 118.039 280.711 117.336 281.232C116.656 281.753 116.112 282.581 115.704 283.714C115.319 284.847 115.126 286.309 115.126 288.1C115.126 289.891 115.319 291.353 115.704 292.486C116.112 293.619 116.656 294.447 117.336 294.968C118.039 295.489 118.843 295.75 119.75 295.75Z" fill="white"/>
<path d="M280.511 101.08V69.12H283.911V101.08H280.511ZM281.735 97.408C279.831 97.408 278.007 97.1587 276.261 96.66C274.516 96.1387 273.111 95.47 272.045 94.654L273.915 90.506C274.935 91.2313 276.137 91.832 277.519 92.308C278.925 92.7613 280.341 92.988 281.769 92.988C282.857 92.988 283.73 92.886 284.387 92.682C285.067 92.4553 285.566 92.1493 285.883 91.764C286.201 91.3787 286.359 90.9367 286.359 90.438C286.359 89.8033 286.11 89.3047 285.611 88.942C285.113 88.5567 284.455 88.2507 283.639 88.024C282.823 87.7747 281.917 87.548 280.919 87.344C279.945 87.1173 278.959 86.8453 277.961 86.528C276.987 86.2107 276.091 85.8027 275.275 85.304C274.459 84.8053 273.791 84.148 273.269 83.332C272.771 82.516 272.521 81.4733 272.521 80.204C272.521 78.844 272.884 77.6087 273.609 76.498C274.357 75.3647 275.468 74.4693 276.941 73.812C278.437 73.132 280.307 72.792 282.551 72.792C284.047 72.792 285.521 72.9733 286.971 73.336C288.422 73.676 289.703 74.1973 290.813 74.9L289.113 79.082C288.003 78.4473 286.892 77.9827 285.781 77.688C284.671 77.3707 283.583 77.212 282.517 77.212C281.452 77.212 280.579 77.3367 279.899 77.586C279.219 77.8353 278.732 78.164 278.437 78.572C278.143 78.9573 277.995 79.4107 277.995 79.932C277.995 80.544 278.245 81.0427 278.743 81.428C279.242 81.7907 279.899 82.0853 280.715 82.312C281.531 82.5387 282.427 82.7653 283.401 82.992C284.399 83.2187 285.385 83.4793 286.359 83.774C287.357 84.0687 288.263 84.4653 289.079 84.964C289.895 85.4627 290.553 86.12 291.051 86.936C291.573 87.752 291.833 88.7833 291.833 90.03C291.833 91.3673 291.459 92.5913 290.711 93.702C289.963 94.8127 288.841 95.708 287.345 96.388C285.872 97.068 284.002 97.408 281.735 97.408ZM297.441 97V75.24L299.821 77.62H292.681V73.2H302.949V97H297.441ZM310.211 97.272C309.305 97.272 308.523 96.966 307.865 96.354C307.231 95.7193 306.913 94.9147 306.913 93.94C306.913 92.9653 307.231 92.1833 307.865 91.594C308.523 90.982 309.305 90.676 310.211 90.676C311.141 90.676 311.923 90.982 312.557 91.594C313.192 92.1833 313.509 92.9653 313.509 93.94C313.509 94.9147 313.192 95.7193 312.557 96.354C311.923 96.966 311.141 97.272 310.211 97.272ZM316.11 97V93.43L325.29 84.76C326.015 84.1027 326.548 83.5133 326.888 82.992C327.228 82.4707 327.454 81.9947 327.568 81.564C327.704 81.1333 327.772 80.7367 327.772 80.374C327.772 79.422 327.443 78.6967 326.786 78.198C326.151 77.6767 325.21 77.416 323.964 77.416C322.966 77.416 322.037 77.6087 321.176 77.994C320.337 78.3793 319.623 78.98 319.034 79.796L315.022 77.212C315.928 75.852 317.198 74.7753 318.83 73.982C320.462 73.1887 322.343 72.792 324.474 72.792C326.242 72.792 327.783 73.0867 329.098 73.676C330.435 74.2427 331.466 75.0473 332.192 76.09C332.94 77.1327 333.314 78.3793 333.314 79.83C333.314 80.6007 333.212 81.3713 333.008 82.142C332.826 82.89 332.441 83.6833 331.852 84.522C331.285 85.3607 330.446 86.3013 329.336 87.344L321.72 94.518L320.666 92.512H334.096V97H316.11ZM346.568 97.408C344.619 97.408 342.874 96.932 341.332 95.98C339.791 95.0053 338.578 93.6 337.694 91.764C336.81 89.928 336.368 87.7067 336.368 85.1C336.368 82.4933 336.81 80.272 337.694 78.436C338.578 76.6 339.791 75.206 341.332 74.254C342.874 73.2793 344.619 72.792 346.568 72.792C348.54 72.792 350.286 73.2793 351.804 74.254C353.346 75.206 354.558 76.6 355.442 78.436C356.326 80.272 356.768 82.4933 356.768 85.1C356.768 87.7067 356.326 89.928 355.442 91.764C354.558 93.6 353.346 95.0053 351.804 95.98C350.286 96.932 348.54 97.408 346.568 97.408ZM346.568 92.75C347.498 92.75 348.302 92.4893 348.982 91.968C349.685 91.4467 350.229 90.6193 350.614 89.486C351.022 88.3527 351.226 86.8907 351.226 85.1C351.226 83.3093 351.022 81.8473 350.614 80.714C350.229 79.5807 349.685 78.7533 348.982 78.232C348.302 77.7107 347.498 77.45 346.568 77.45C345.662 77.45 344.857 77.7107 344.154 78.232C343.474 78.7533 342.93 79.5807 342.522 80.714C342.137 81.8473 341.944 83.3093 341.944 85.1C341.944 86.8907 342.137 88.3527 342.522 89.486C342.93 90.6193 343.474 91.4467 344.154 91.968C344.857 92.4893 345.662 92.75 346.568 92.75Z" fill="white"/>
</g>
<defs>
<clipPath id="clip0_2008_12">
<rect width="630" height="630" fill="white"/>
</clipPath>
</defs>
</svg>
