<svg width="525" height="543" viewBox="0 0 525 543" fill="none" xmlns="http://www.w3.org/2000/svg">
<path d="M449.957 521.166C491.02 521.166 524.309 518.077 524.309 514.267C524.309 510.457 491.02 507.368 449.957 507.368C408.894 507.368 375.605 510.457 375.605 514.267C375.605 518.077 408.894 521.166 449.957 521.166Z" fill="#CAD5FF"/>
<path d="M342.047 516.44C341.798 516.917 341.527 517.383 341.214 517.823C339.864 519.723 337.927 521.232 335.551 522.068L317.626 528.347C313.392 529.831 310.531 533.787 310.449 538.27C310.415 540.131 311.9 541.671 313.761 541.705L384.477 543C385.626 543.02 386.706 542.454 387.341 541.491C409.78 507.699 402.474 518.701 403.975 516.44H342.047Z" fill="#3360FF"/>
<path d="M385.469 537.406C385.469 537.406 385.465 537.406 385.462 537.406L347.201 536.706C346.997 536.703 346.833 536.533 346.837 536.328C346.841 536.126 347.006 535.965 347.208 535.965C347.208 535.965 347.212 535.965 347.215 535.965L385.476 536.665C385.68 536.668 385.844 536.838 385.84 537.043C385.837 537.245 385.671 537.406 385.469 537.406Z" fill="black"/>
<path d="M205.807 516.44C205.558 516.917 205.288 517.383 204.974 517.823C203.624 519.723 201.687 521.232 199.311 522.068L181.387 528.347C177.153 529.831 174.292 533.787 174.21 538.27C174.175 540.131 175.66 541.671 177.522 541.705L248.238 543C249.386 543.02 250.466 542.454 251.101 541.491C273.54 507.699 266.234 518.701 267.736 516.44H205.807Z" fill="#3360FF"/>
<path d="M249.23 537.406C249.23 537.406 249.226 537.406 249.222 537.406L210.962 536.706C210.758 536.703 210.595 536.533 210.599 536.328C210.602 536.126 210.768 535.965 210.969 535.965C210.969 535.965 210.974 535.965 210.977 535.965L249.237 536.665C249.441 536.668 249.604 536.838 249.6 537.043C249.597 537.245 249.431 537.406 249.23 537.406Z" fill="black"/>
<path d="M453.17 317.504C436.162 325.544 419.912 330.038 404.598 331.911C373.423 335.737 346.173 328.693 324.483 318.6C290.01 302.579 269.545 278.866 269.545 278.866L296.087 234.45C353.626 288.82 444.95 273.895 444.95 273.895L453.17 317.504Z" fill="#FCAA02"/>
<path d="M413.626 283.709L404.599 331.912C373.424 335.737 346.174 328.693 324.484 318.601C367.197 287.096 413.626 283.709 413.626 283.709Z" fill="black"/>
<path d="M261.434 248.153C256.331 244.1 251.131 239.912 249.093 241.461C246.692 243.299 252.555 249.4 256.292 252.551C252.489 249.952 248.468 248.066 247.642 249.891C245.715 254.172 273.591 274.773 273.591 274.773C275.42 272.249 267.334 283.411 289.65 252.606C288.911 246.694 282.533 230.798 277.964 231.732C275.658 232.201 277.25 237.555 277.302 243.298C269.256 236.804 261.62 229.282 259.789 231.475C257.81 233.851 262.153 239.685 266.414 244.123C260.57 238.763 255.387 233.807 253.361 236.125C251.861 237.857 257.358 244.257 261.434 248.153Z" fill="white"/>
<path d="M273.589 275.144C273.51 275.144 273.433 275.119 273.368 275.071C270.49 272.945 245.309 254.164 247.302 249.739C247.497 249.308 247.85 249.011 248.323 248.878C249.517 248.54 251.409 249.268 253.208 250.228C250.668 247.703 248.114 244.589 248.16 242.6C248.175 241.996 248.412 241.513 248.865 241.166C250.549 239.887 253.801 241.828 257.565 244.659C254.814 241.566 251.718 237.453 253.078 235.882C253.462 235.443 253.955 235.204 254.546 235.172C256.354 235.084 259.051 237.037 262.195 239.794C259.847 236.686 257.923 233.132 259.502 231.238C259.755 230.933 260.099 230.76 260.522 230.722C263.318 230.501 269.89 236.779 276.912 242.506C276.863 240.987 276.721 239.501 276.593 238.166C276.237 234.444 275.981 231.756 277.888 231.369C283.009 230.28 289.359 247.295 290.016 252.561C290.029 252.66 290 252.76 289.936 252.839C267.636 283.622 275.715 272.47 273.889 274.991C273.831 275.071 273.743 275.124 273.646 275.14C273.627 275.143 273.608 275.144 273.589 275.144ZM248.998 249.534C248.821 249.534 248.662 249.553 248.524 249.592C248.258 249.667 248.085 249.811 247.979 250.045C246.676 252.935 262.819 266.325 273.508 274.252L289.26 252.497C288.439 246.524 282.18 231.247 278.036 232.096C276.783 232.351 277.025 234.885 277.331 238.096C277.484 239.677 277.654 241.471 277.671 243.295C277.673 243.438 277.591 243.57 277.462 243.633C277.332 243.695 277.18 243.677 277.067 243.587C270.327 238.144 263.283 231.457 260.703 231.457C260.663 231.457 260.625 231.458 260.586 231.462C260.361 231.481 260.197 231.561 260.071 231.713C258.338 233.792 262.348 239.354 266.679 243.866C266.818 244.01 266.817 244.238 266.676 244.382C266.535 244.524 266.306 244.53 266.161 244.396C262.461 240.977 257.062 235.744 254.587 235.913C254.197 235.935 253.887 236.084 253.638 236.369C252.52 237.66 256.946 243.352 261.689 247.885C261.832 248.021 261.842 248.247 261.711 248.397C261.581 248.547 261.359 248.567 261.201 248.443C258.363 246.189 251.344 240.219 249.315 241.755C249.046 241.961 248.911 242.244 248.903 242.618C248.854 244.691 252.703 249.042 256.529 252.268C256.68 252.395 256.705 252.619 256.585 252.776C256.466 252.933 256.242 252.969 256.081 252.858C252.975 250.735 250.399 249.534 248.998 249.534Z" fill="black"/>
<path d="M444.953 273.896C444.953 273.896 519.357 268.41 513.077 340.286C505.786 423.732 494.939 436.441 494.939 436.441C494.939 436.441 352.485 467.35 322.397 436.441C286.897 399.975 326.099 298.704 444.953 273.896Z" fill="#FCAA02"/>
<path d="M458.809 516.154C429.536 519.491 399.138 492.999 370.015 470.312C355.708 459.173 341.709 448.941 328.299 443.63C322.689 441.408 317.19 440.043 311.809 439.824C305.851 439.595 277.137 516.193 277.137 516.193H189.38C189.38 516.193 243.7 330.686 305.682 334.482C309.717 334.731 313.643 335.468 317.439 336.614C319.82 337.331 322.141 338.208 324.423 339.215C324.433 339.224 324.453 339.234 324.473 339.244C327.631 340.649 330.69 342.333 333.639 344.216C345.675 351.888 355.947 363.047 364.057 373.907C377.219 391.512 384.691 408.34 384.691 408.34L494.936 436.437C494.936 436.437 508.486 510.504 458.809 516.154Z" fill="white"/>
<path d="M377.522 476.675C374.935 474.637 372.357 472.606 369.788 470.606C356.956 460.615 342.099 449.494 328.162 443.975C322.267 441.641 316.913 440.404 311.794 440.195C311.788 440.195 311.779 440.195 311.772 440.195C307.555 440.195 288.969 485.686 277.485 516.324C277.43 516.469 277.292 516.564 277.137 516.564C204.659 516.519 191.887 516.633 189.604 516.54C189.353 516.529 188.891 516.543 189.024 516.089C189.16 515.625 202.856 469.161 223.952 423.758C238.96 391.456 270.24 331.947 305.705 334.112C309.649 334.355 313.633 335.078 317.546 336.26C319.871 336.959 322.169 337.815 324.573 338.875C324.614 338.894 324.652 338.92 324.684 338.953C327.661 340.257 330.762 341.939 333.839 343.904C344.318 350.583 354.585 360.602 364.354 373.686C376.701 390.199 384.14 406.231 384.957 408.024L495.028 436.078C495.168 436.113 495.274 436.228 495.301 436.369C495.378 436.789 502.769 478.542 485.657 501.605C479.277 510.206 470.257 515.226 458.851 516.523C430.772 519.722 400.812 495.015 377.522 476.675ZM311.793 439.453C311.803 439.453 311.813 439.453 311.824 439.454C317.028 439.666 322.46 440.919 328.435 443.286C342.463 448.841 357.371 459.998 370.243 470.02C372.813 472.022 375.393 474.054 377.981 476.092C404.65 497.094 432.225 518.808 458.766 515.786C469.961 514.513 478.807 509.593 485.061 501.164C501.319 479.253 495.183 440.134 494.611 436.737L384.6 408.699C384.49 408.671 384.399 408.595 384.352 408.49C384.278 408.322 376.744 391.496 363.76 374.13C354.044 361.119 343.843 351.16 333.439 344.529C328.378 341.296 323.036 338.69 317.332 336.97C313.474 335.804 309.546 335.092 305.659 334.853C273.867 332.919 244.038 382.291 224.628 424.063C204.699 466.952 191.381 510.794 189.877 515.823H276.881C280.227 506.906 305.742 439.453 311.793 439.453Z" fill="black"/>
<path d="M364.058 373.907C363.689 373.907 363.301 373.907 362.902 373.887C334.018 372.89 320.169 343.22 317.439 336.614C317.101 335.787 316.931 335.318 316.931 335.318C316.931 335.318 319.89 336.813 324.424 339.214C324.533 339.321 326.823 340.438 333.64 344.216C345.675 351.887 355.948 363.047 364.058 373.907ZM375.605 400.549L370.016 470.312C355.709 459.173 341.71 448.941 328.299 443.63C349.92 417.646 375.605 400.549 375.605 400.549Z" fill="black"/>
<path d="M237.299 495.233C237.159 495.085 237.164 494.85 237.313 494.708C245.885 486.544 251.543 474.639 255.12 457.241C257.953 443.467 259.212 429.122 263.908 415.791C272.616 391.065 289.199 379.094 315.436 383.004C340.536 386.745 363.605 401.793 377.147 423.256C377.257 423.429 377.205 423.658 377.031 423.768C376.861 423.878 376.63 423.826 376.52 423.652C363.092 402.369 340.216 387.448 315.327 383.737C292.359 380.319 274.229 388.717 264.607 416.037C259.944 429.277 258.679 443.611 255.846 457.39C252.237 474.944 246.511 486.973 237.824 495.247C237.682 495.382 237.446 495.386 237.299 495.233Z" fill="black"/>
<path d="M487.27 487.106C456.16 478.518 449.903 439.824 449.903 439.824L415.23 516.193H322.402C322.402 516.193 348.834 436.656 385.131 386.381C391.876 377.035 398.96 368.706 406.283 362.08C417.801 351.658 429.886 345.471 442.141 346.218C489.646 349.138 462.118 428.565 462.118 428.565L494.937 436.437" fill="white"/>
<path d="M415.23 516.564H322.402C322.149 516.564 321.97 516.318 322.05 516.076C322.314 515.28 348.917 435.91 384.83 386.163C391.97 376.271 399.104 368.076 406.034 361.805C418.511 350.516 430.666 345.145 442.165 345.848C451.951 346.449 459.31 350.351 464.038 357.443C478.358 378.929 464.134 423.66 462.598 428.299L495.024 436.075C495.223 436.124 495.346 436.324 495.299 436.523C495.25 436.721 495.063 436.84 494.85 436.798L462.031 428.927C461.816 428.874 461.697 428.647 461.767 428.444C461.934 427.963 478.255 380.111 463.42 357.853C458.828 350.965 451.662 347.174 442.119 346.589C430.837 345.905 418.856 351.205 406.531 362.356C399.64 368.59 392.541 376.747 385.432 386.598C351.056 434.213 325.216 509.053 322.918 515.823H414.991L449.566 439.671C449.632 439.522 449.801 439.438 449.952 439.457C450.114 439.478 450.244 439.604 450.27 439.765C450.332 440.149 456.851 478.323 487.368 486.749C487.566 486.803 487.682 487.008 487.627 487.204C487.574 487.402 487.374 487.521 487.172 487.463C459.227 479.749 451.126 447.558 449.76 441.036L415.568 516.346C415.508 516.479 415.376 516.564 415.23 516.564Z" fill="black"/>
<path d="M381.918 497.482C381.758 497.482 381.61 497.377 381.562 497.216C377.811 484.48 382.167 469.108 393.513 455.04C402.981 443.303 415.247 433.963 424.826 422.397C436.195 408.672 440.903 393.627 437.743 381.122C437.693 380.923 437.813 380.721 438.011 380.671C438.215 380.616 438.412 380.742 438.462 380.94C441.68 393.678 436.918 408.961 425.397 422.871C415.798 434.461 403.513 443.825 394.091 455.506C382.9 469.381 378.592 484.507 382.274 497.007C382.332 497.203 382.22 497.409 382.023 497.467C381.988 497.478 381.953 497.482 381.918 497.482Z" fill="black"/>
<path d="M284.87 328.137C276.265 328.724 259.462 314.064 258.882 305.465C257.971 292.188 281.199 266.462 298.142 251.664C314.552 256.077 328.509 263.925 339.241 267.584C330.216 282.929 302.827 326.92 284.87 328.137Z" fill="white"/>
<path d="M284.346 328.525C279.528 328.525 273.122 324.451 268.622 320.526C263.95 316.449 258.84 310.359 258.511 305.491C257.575 291.849 281.552 265.66 297.898 251.385C297.991 251.304 298.118 251.276 298.238 251.306C314.72 255.739 328.6 263.563 339.36 267.233C339.466 267.269 339.55 267.35 339.588 267.454C339.626 267.559 339.617 267.676 339.56 267.772C329.058 285.632 302.707 327.301 284.894 328.508C284.714 328.519 284.531 328.525 284.346 328.525ZM298.237 252.074C282.007 266.28 258.337 292.109 259.253 305.44C259.513 309.324 263.291 314.891 269.11 319.967C274.929 325.044 280.944 328.049 284.845 327.767C302.629 326.563 330.259 282.082 338.691 267.786C328.003 264.063 314.334 256.434 298.237 252.074Z" fill="black"/>
<path d="M284.869 328.137C279.612 328.496 271.278 323.147 265.468 316.978C269.855 320.11 274.427 322.176 277.775 321.948C294.548 320.812 319.571 282.331 330.139 264.766C333.446 265.716 336.502 266.649 339.24 267.584C330.215 282.929 302.827 326.92 284.869 328.137Z" fill="black"/>
<path d="M284.356 328.525C278.758 328.525 270.573 322.938 265.198 317.232C265.068 317.093 265.063 316.877 265.189 316.734C265.314 316.591 265.528 316.565 265.683 316.676C270.335 319.997 274.74 321.801 277.75 321.577C294.475 320.446 319.737 281.337 329.822 264.575C329.909 264.43 330.08 264.361 330.243 264.41C333.83 265.44 336.813 266.363 339.361 267.232C339.466 267.269 339.55 267.349 339.588 267.454C339.627 267.559 339.617 267.675 339.56 267.772C329.058 285.631 302.708 327.301 284.895 328.508C284.719 328.519 284.538 328.525 284.356 328.525ZM268.391 319.321C273.624 324.065 280.28 328.071 284.845 327.767C302.628 326.563 330.256 282.087 338.689 267.788C336.315 266.988 333.566 266.14 330.311 265.201C320.069 282.196 294.79 321.167 277.8 322.318C275.27 322.481 272.011 321.439 268.391 319.321Z" fill="black"/>
<path d="M341.237 268.278C310.56 257.167 210.784 226.708 200.401 195.777C185.341 150.911 277.762 48.3895 324.851 53.1272C358.013 56.4637 395.819 159.853 409.196 190.381C417.384 209.066 408.774 225.033 392.141 244.098C373.377 265.606 358.275 274.449 341.237 268.278Z" fill="white"/>
<path d="M351.796 270.603C348.253 270.603 344.717 269.933 341.111 268.626C309.58 257.203 210.527 227.108 200.049 195.895C188.544 161.619 237.346 98.4445 278.547 69.913C296.543 57.4507 312.574 51.5161 324.887 52.7571C353.826 55.6695 385.758 132.939 402.913 174.452C405.505 180.725 407.744 186.144 409.536 190.232C417.886 209.288 408.732 225.645 392.42 244.342C376.711 262.347 364.224 270.602 351.796 270.603ZM200.753 195.659C211.021 226.251 311.605 257.149 341.363 267.929C357.286 273.697 371.913 266.719 391.861 243.853C407.988 225.369 417.05 209.228 408.857 190.53C407.062 186.434 404.821 181.013 402.228 174.736C385.132 133.367 353.31 56.363 324.813 53.4961C278.546 48.805 185.649 150.668 200.753 195.659Z" fill="black"/>
<path d="M392.138 244.103C373.376 265.609 358.275 274.453 341.239 268.279C340.228 267.915 339.163 267.542 338.051 267.179C351.376 263.603 364.741 252.676 380.001 235.184C396.797 215.931 407.183 199.156 405.594 181.177C406.82 184.599 408.024 187.698 409.199 190.38C417.382 209.065 408.771 225.037 392.138 244.103Z" fill="#FFAE44"/>
<path d="M351.799 270.606C348.257 270.606 344.72 269.935 341.114 268.628C340.107 268.264 339.045 267.894 337.937 267.532C337.78 267.48 337.676 267.333 337.681 267.168C337.685 267.005 337.797 266.863 337.955 266.821C350.555 263.439 363.437 253.607 379.723 234.939C399.234 212.576 406.622 197.009 405.225 181.21C405.209 181.024 405.333 180.855 405.515 180.815C405.703 180.769 405.88 180.877 405.943 181.052C407.233 184.647 408.409 187.65 409.54 190.231C417.887 209.29 408.733 225.648 392.419 244.347C376.711 262.351 364.224 270.605 351.799 270.606ZM339.309 267.208C340.017 267.449 340.703 267.691 341.366 267.93C357.284 273.699 371.911 266.724 391.86 243.859C407.987 225.374 417.051 209.23 408.861 190.529C407.98 188.52 407.074 186.26 406.109 183.666C406.602 202.498 394.044 219.652 380.282 235.428C364.391 253.642 351.691 263.507 339.309 267.208Z" fill="black"/>
<path d="M290.758 149.002C256.395 188.389 217.213 210.445 203.244 198.258C189.27 186.067 205.806 144.255 240.169 104.867C274.537 65.4728 313.719 43.4171 327.694 55.6086C341.663 67.7956 325.126 109.607 290.758 149.002Z" fill="white"/>
<path d="M213.404 201.94C209.177 201.94 205.643 200.844 202.999 198.538C196.115 192.531 196.198 179.422 203.235 161.625C210.225 143.949 223.242 123.705 239.889 104.623C274.336 65.1399 313.833 43.0244 327.937 55.3293C334.821 61.3343 334.736 74.4423 327.697 92.2388C320.706 109.916 307.687 130.162 291.037 149.247C263.049 181.327 231.726 201.94 213.404 201.94ZM317.399 52.6042C299.388 52.6042 268.308 73.1786 240.448 105.112C223.855 124.131 210.884 144.298 203.925 161.898C197.012 179.38 196.857 192.194 203.488 197.979C217.278 210.008 256.304 187.929 290.478 148.758C307.073 129.736 320.047 109.568 327.008 91.9666C333.922 74.4837 334.079 61.6717 327.449 55.8882C324.899 53.663 321.484 52.6042 317.399 52.6042Z" fill="black"/>
<path d="M290.756 149C285.901 154.566 280.92 159.68 275.95 164.261C253.941 184.604 232.279 194.489 223.518 186.846C212.782 177.48 225.493 145.356 251.893 115.096C278.299 84.8281 308.401 67.8774 319.137 77.2433C327.538 84.573 321.573 105.863 305.919 129.272C301.579 135.768 296.488 142.43 290.756 149Z" fill="#3360FF"/>
<path d="M231.441 189.806C228.116 189.806 225.346 188.933 223.274 187.126C212.406 177.642 225.119 145.22 251.614 114.851C264.412 100.18 278.475 88.1524 291.209 80.9831C304.056 73.7506 314.061 72.3234 319.381 76.9642C327.678 84.2019 322.392 105.306 306.228 129.478C301.775 136.143 296.663 142.793 291.036 149.244C286.255 154.723 281.264 159.867 276.203 164.534C258.722 180.691 242.185 189.806 231.441 189.806ZM291.573 81.6299C278.91 88.7589 264.917 100.731 252.173 115.339C225.947 145.399 213.201 177.352 223.762 186.567C232.095 193.835 253.452 184.553 275.7 163.989C280.741 159.341 285.713 154.215 290.477 148.756C296.084 142.33 301.176 135.705 305.611 129.066C321.558 105.218 326.896 84.5051 318.893 77.5231C312.205 71.6861 299.314 77.2723 291.573 81.6299Z" fill="black"/>
<path d="M290.757 149.001C285.902 154.566 280.922 159.68 275.952 164.261C262.354 151.044 257.687 133.795 265.637 124.682C273.53 115.634 291.051 117.818 305.92 129.272C301.581 135.768 296.49 142.43 290.757 149.001Z" fill="white"/>
<path d="M275.952 164.632C275.859 164.632 275.766 164.597 275.693 164.527C261.715 150.941 257.271 133.706 265.357 124.438C273.356 115.272 290.891 117.226 306.147 128.979C306.301 129.098 306.337 129.316 306.228 129.478C301.776 136.144 296.664 142.794 291.037 149.245C286.255 154.724 281.265 159.868 276.204 164.534C276.132 164.6 276.042 164.632 275.952 164.632ZM279.725 119.403C274.042 119.403 269.157 121.211 265.916 124.927C258.269 133.691 262.687 150.693 275.959 163.75C280.913 159.165 285.796 154.122 290.478 148.756C296.003 142.423 301.029 135.897 305.418 129.355C296.815 122.807 287.519 119.403 279.725 119.403Z" fill="black"/>
<path d="M301.706 289.661C295.028 297.316 287.239 301.46 284.317 298.91C281.394 296.36 284.436 288.075 291.114 280.42C297.799 272.758 305.588 268.627 308.511 271.177C311.434 273.727 308.391 281.999 301.706 289.661Z" fill="#CAD5FF"/>
<path d="M306.408 296.797C301.305 292.744 296.104 288.557 294.067 290.105C291.666 291.943 297.529 298.045 301.266 301.195C297.463 298.596 293.442 296.71 292.616 298.535C290.689 302.816 318.565 323.418 318.565 323.418C320.394 320.894 312.308 332.055 334.624 301.251C333.885 295.338 327.507 279.442 322.937 280.377C320.632 280.845 322.224 286.2 322.276 291.943C314.23 285.449 306.594 277.926 304.763 280.119C302.784 282.495 307.127 288.329 311.387 292.767C305.544 287.407 300.361 282.451 298.334 284.77C296.835 286.501 302.332 292.901 306.408 296.797Z" fill="white"/>
<path d="M318.345 323.716C315.466 321.589 290.285 302.809 292.279 298.383C293.141 296.475 296.332 297.885 298.184 298.871C295.972 296.673 291.385 291.695 293.842 289.811C295.525 288.536 298.777 290.474 302.544 293.305C299.792 290.212 296.694 286.097 298.055 284.526C300.109 282.179 304.683 286.256 307.17 288.437C304.823 285.33 302.9 281.777 304.479 279.882C306.386 277.586 313.178 283.835 317.271 287.296C318.772 288.564 320.317 289.87 321.889 291.151C321.705 285.422 320.251 280.544 322.865 280.014C327.987 278.927 334.334 295.932 334.994 301.205C335.006 301.304 334.977 301.406 334.914 301.483C312.612 332.266 320.692 321.114 318.865 323.635C318.745 323.802 318.509 323.838 318.345 323.716ZM292.956 298.689C291.653 301.581 307.795 314.969 318.484 322.896L334.237 301.142C333.412 295.154 327.15 279.894 323.013 280.74C321.147 281.119 322.598 286.499 322.647 291.94C322.652 292.248 322.293 292.43 322.044 292.232C320.252 290.786 318.494 289.299 316.793 287.862C314.801 286.178 306.478 278.635 305.048 280.357C303.315 282.439 307.324 288 311.657 292.51C311.795 292.654 311.794 292.883 311.654 293.025C311.514 293.169 311.284 293.175 311.138 293.04L310.364 292.33C307.795 289.97 300.576 282.767 298.615 285.014C297.497 286.304 301.923 291.997 306.665 296.529C306.808 296.665 306.818 296.891 306.688 297.041C306.557 297.19 306.335 297.211 306.178 297.088L305.909 296.874C301.294 293.209 296.066 289.06 294.292 290.401C294.023 290.607 293.887 290.889 293.879 291.262C293.83 293.335 297.678 297.686 301.506 300.912C301.657 301.039 301.682 301.263 301.562 301.42C301.442 301.577 301.218 301.614 301.057 301.502C299.385 300.358 293.783 296.856 292.956 298.689Z" fill="black"/>
<path d="M493.435 368.335C463.428 382.507 435.789 385.665 411.555 382.869C399.262 381.461 387.844 378.515 377.44 374.706C335.353 359.297 309.807 329.695 309.807 329.695L336.356 285.282C393.895 339.651 485.218 324.722 485.218 324.722L493.435 368.335Z" fill="#FCAA02"/>
<path d="M309.619 330.017C309.443 329.911 309.386 329.684 309.491 329.508L336.032 285.095C336.136 284.92 336.365 284.864 336.541 284.967C336.717 285.073 336.774 285.3 336.669 285.476L310.128 329.888C310.023 330.064 309.796 330.12 309.619 330.017Z" fill="black"/>
<path d="M443.688 326.641C443.682 326.641 443.676 326.641 443.669 326.641C412.699 325.004 368.896 316.548 336.098 285.555C335.949 285.415 335.942 285.18 336.082 285.031C336.223 284.881 336.458 284.875 336.607 285.016C369.242 315.854 412.862 324.27 443.708 325.9C443.913 325.911 444.069 326.085 444.059 326.29C444.048 326.487 443.885 326.641 443.688 326.641Z" fill="black"/>
<path d="M284.516 497.436C284.51 497.436 284.503 497.436 284.496 497.436L212.652 493.582C212.447 493.571 212.291 493.396 212.301 493.192C212.312 492.988 212.485 492.828 212.691 492.841L284.536 496.695C284.741 496.706 284.897 496.881 284.887 497.085C284.876 497.282 284.712 497.436 284.516 497.436Z" fill="black"/>
<path d="M423.11 499.207C423.107 499.207 423.104 499.207 423.101 499.207L350.361 497.435C350.156 497.43 349.995 497.26 350 497.055C350.004 496.85 350.191 496.704 350.38 496.694L423.12 498.466C423.324 498.471 423.486 498.641 423.481 498.846C423.477 499.048 423.311 499.207 423.11 499.207Z" fill="black"/>
<path d="M449.78 440.176C449.588 440.105 449.488 439.892 449.56 439.701C449.694 439.333 463.002 402.881 461.7 392.464C461.675 392.261 461.819 392.076 462.023 392.05C462.239 392.019 462.411 392.169 462.437 392.373C463.761 402.967 450.808 438.451 450.255 439.955C450.184 440.153 449.966 440.245 449.78 440.176Z" fill="black"/>
<path d="M446.24 225.596C446.24 225.596 442.084 230.602 444.472 234.408C446.86 238.215 459.371 231.463 459.371 231.463L446.24 225.596Z" fill="black"/>
<path d="M440.483 274.703L442.792 265.215C424.203 258.841 447.529 229.423 449.853 227.225L474.397 245.447L464.708 261.539L460.919 274.862C447.035 293.081 441.663 289.967 440.483 274.703Z" fill="white"/>
<path d="M445.278 287.579C442.405 286.73 440.715 282.528 440.114 274.733C440.105 274.621 439.849 275.77 442.351 265.453C438.589 264.075 436.303 261.63 435.555 258.181C433.1 246.866 448.135 228.339 449.597 226.956C449.725 226.831 449.928 226.82 450.073 226.927L474.618 245.15C474.771 245.264 474.812 245.476 474.714 245.64L465.05 261.688L461.276 274.964C461.262 275.008 461.242 275.051 461.214 275.087C457.968 279.346 450.323 289.07 445.278 287.579ZM440.858 274.734C441.436 282.15 442.952 286.119 445.488 286.867C448.635 287.799 453.711 283.698 460.581 274.694C464.501 260.925 464.348 261.417 464.389 261.347L473.905 245.545L449.891 227.717C447.589 230.203 433.981 247.431 436.28 258.024C436.99 261.298 439.221 263.599 442.911 264.864C443.092 264.926 443.197 265.117 443.151 265.303L440.858 274.734Z" fill="black"/>
<path d="M445.692 221.206C447.473 214.733 458.375 218.107 472.509 223.873C500.124 235.136 477.987 264.535 465.839 262.635C456.826 261.226 468.332 252.307 468.332 252.307C468.332 252.307 461.213 251.281 463.602 245.814C465.991 240.346 442.146 234.094 445.692 221.206ZM444.195 248.739C443.421 248.51 442.037 248.001 441.473 247.181C440.951 246.419 441.297 245.633 442.145 245.255C442.78 244.97 443.596 244.886 444.227 244.697C445.633 244.279 446.319 243.329 446.981 242.411C447.102 242.245 447.333 242.211 447.499 242.328C447.665 242.448 447.702 242.68 447.583 242.846C446.916 243.768 446.087 244.917 444.438 245.408C443.823 245.592 442.969 245.698 442.449 245.931C442.036 246.116 441.827 246.385 442.084 246.76C442.402 247.223 443.248 247.685 444.406 248.027C444.603 248.086 444.714 248.292 444.656 248.489C444.596 248.689 444.387 248.796 444.195 248.739Z" fill="black"/>
<path d="M451.687 245.689C452.35 245.689 452.889 245.151 452.889 244.487C452.889 243.823 452.35 243.285 451.687 243.285C451.023 243.285 450.485 243.823 450.485 244.487C450.485 245.151 451.023 245.689 451.687 245.689Z" fill="black"/>
<path d="M454.983 244.164C454.865 243.044 454.458 242.241 453.771 241.778C452.542 240.949 450.8 241.433 450.781 241.439C450.583 241.491 450.378 241.38 450.322 241.184C450.266 240.986 450.38 240.781 450.576 240.724C450.662 240.701 452.671 240.142 454.186 241.163C455.062 241.754 455.579 242.738 455.72 244.085C455.742 244.289 455.594 244.472 455.391 244.493C455.213 244.52 455.006 244.383 454.983 244.164Z" fill="black"/>
<path d="M443.519 241.505C444.183 241.505 444.721 240.967 444.721 240.303C444.721 239.639 444.183 239.101 443.519 239.101C442.855 239.101 442.317 239.639 442.317 240.303C442.317 240.967 442.855 241.505 443.519 241.505Z" fill="black"/>
<path d="M446.817 239.98C446.698 238.862 446.291 238.06 445.607 237.597C444.387 236.772 442.631 237.25 442.613 237.255C442.414 237.308 442.212 237.197 442.156 237C442.099 236.803 442.213 236.598 442.41 236.541C442.497 236.518 444.504 235.956 446.019 236.98C446.895 237.571 447.412 238.554 447.553 239.902C447.575 240.106 447.427 240.289 447.224 240.309C447.046 240.337 446.839 240.199 446.817 239.98Z" fill="black"/>
<path d="M442.758 265.232C445.798 266.381 449.824 265.479 454.158 264.152C454.158 264.152 452.307 270.629 441.828 268.887L442.758 265.232Z" fill="black"/>
<path d="M441.766 269.253C441.552 269.216 441.414 269.005 441.468 268.795L442.398 265.141C442.454 264.922 442.688 264.807 442.889 264.885C445.88 266.016 450.019 265.03 454.048 263.797C454.337 263.714 454.593 263.975 454.514 264.255C453.581 267.382 449.351 270.509 441.766 269.253ZM442.286 268.583C449.947 269.728 452.679 266.267 453.497 264.738C449.255 265.992 445.808 266.602 443.017 265.715L442.286 268.583Z" fill="black"/>
<path d="M462.732 253.659C462.032 256.11 463.452 258.669 465.904 259.369C468.366 260.073 470.924 258.652 471.624 256.201C472.328 253.739 470.907 251.181 468.445 250.477C465.994 249.777 463.436 251.198 462.732 253.659Z" fill="white"/>
<path d="M467.176 259.92C463.856 259.92 461.467 256.733 462.374 253.557C463.133 250.901 465.887 249.364 468.546 250.12C471.206 250.883 472.741 253.642 471.98 256.303C471.354 258.491 469.35 259.92 467.176 259.92ZM463.088 253.761C462.444 256.012 463.752 258.369 466.004 259.013C468.264 259.66 470.623 258.351 471.266 256.099C471.914 253.837 470.613 251.482 468.342 250.834C466.073 250.185 463.731 251.509 463.088 253.761Z" fill="black"/>
<path d="M439.678 250.791C441.036 251.063 440.558 251.508 444.897 252.643C449.236 253.778 441.709 259.752 439.021 258.139C436.333 256.526 437.417 250.339 439.678 250.791Z" fill="black"/>
<path d="M442.206 256.433C442.869 256.097 441.83 255.005 441.251 254.658C440.703 254.329 439.926 255.004 439.003 254.923C438.663 254.893 441.147 256.971 442.206 256.433Z" fill="white"/>
<path d="M226.224 87.395L188.854 24.0634C188.75 23.8875 188.808 23.6598 188.985 23.5552C189.16 23.4538 189.389 23.5097 189.494 23.6867L226.864 87.0183C226.967 87.1943 226.909 87.422 226.732 87.5265C226.554 87.63 226.328 87.5696 226.224 87.395ZM178.514 6.17892C178.388 6.17892 178.264 6.11372 178.195 5.99677L174.985 0.558969C174.882 0.383022 174.94 0.155326 175.117 0.0507925C175.291 -0.0516708 175.519 0.00525328 175.625 0.182235L178.834 5.62003C178.938 5.79598 178.88 6.02368 178.703 6.12821C178.644 6.16236 178.579 6.17892 178.514 6.17892ZM215.786 105.473L162.177 78.3203C161.994 78.2272 161.922 78.0046 162.014 77.8214C162.107 77.6383 162.333 77.5679 162.513 77.6579L216.122 104.811C216.305 104.904 216.377 105.126 216.285 105.31C216.192 105.494 215.967 105.563 215.786 105.473ZM132.718 63.3534C132.661 63.3534 132.604 63.341 132.55 63.3141L124.487 59.2301C124.304 59.1369 124.232 58.9144 124.324 58.7312C124.417 58.548 124.642 58.4766 124.823 58.5677L132.885 62.6517C133.068 62.7449 133.141 62.9674 133.049 63.1506C132.984 63.2799 132.853 63.3534 132.718 63.3534ZM207.203 123.911H207.199L195.447 123.771C195.242 123.768 195.077 123.601 195.08 123.396C195.082 123.192 195.248 123.029 195.451 123.029H195.455L207.207 123.17C207.412 123.172 207.577 123.34 207.574 123.545C207.572 123.749 207.406 123.911 207.203 123.911ZM173.897 123.514H173.893L105.364 122.696C105.159 122.694 104.994 122.526 104.998 122.322C105 122.118 105.165 121.955 105.368 121.955H105.372L173.902 122.773C174.106 122.775 174.271 122.943 174.268 123.147C174.266 123.351 174.1 123.514 173.897 123.514Z" fill="white"/>
<path d="M67.0936 530.049C66.9301 530.049 66.7852 529.942 66.7386 529.785L63.0365 517.462C61.9032 516.469 50.1654 505.761 50.6146 489.406C51.0245 474.491 61.1249 459.553 80.6363 445.007C108.808 424.004 117.654 403.638 120.115 390.25C122.778 375.759 118.739 366.096 118.699 366C118.64 365.863 118.669 365.705 118.771 365.598C118.859 365.505 127.805 356.291 145.643 351.544C156.415 348.685 167.309 340.648 174.551 334.409C176.192 333 177.797 331.548 179.46 329.97C180.716 328.773 182.793 329.324 183.295 330.988L185.502 338.402C186.673 342.303 185.253 346.533 181.967 348.929L161.94 363.538C161.778 363.655 161.544 363.621 161.422 363.456C161.302 363.29 161.338 363.058 161.504 362.937L181.531 348.328C184.562 346.119 185.873 342.215 184.792 338.616L184.656 338.171L182.584 331.201C182.246 330.071 180.833 329.692 179.971 330.507C178.299 332.095 176.685 333.555 175.034 334.972C167.734 341.261 156.742 349.365 145.833 352.26C129.531 356.598 120.765 364.685 119.474 365.944C120.078 367.526 123.311 376.895 120.854 390.332C118.379 403.864 109.47 424.436 81.0793 445.601C61.7645 460.002 51.7634 474.743 51.3567 489.416C50.892 506.151 63.4712 516.861 63.5985 516.967C63.756 517.099 63.4667 516.393 67.3679 529.301L111.903 528.299C111.083 524.085 107.863 520.647 103.543 519.659L86.5906 515.753C86.4695 515.725 86.3702 515.64 86.3267 515.524C86.2822 515.408 86.2998 515.278 86.3712 515.177C101.64 493.707 102.721 475.496 89.6728 459.502C89.5434 459.343 89.5672 459.109 89.7256 458.979C89.885 458.851 90.1178 458.875 90.2482 459.032C103.443 475.208 102.479 493.572 87.2954 515.155L103.708 518.937C108.483 520.027 111.98 523.917 112.709 528.604C112.744 528.825 112.576 529.027 112.351 529.031L67.1019 530.049C67.0988 530.049 67.0967 530.049 67.0936 530.049Z" fill="white"/>
<path d="M63.1241 517.539C63.0123 517.446 51.8904 507.997 50.7053 492.959C49.1395 473.377 64.9618 456.686 80.6339 445.004C80.7964 444.883 81.0303 444.914 81.1524 445.08C81.2756 445.243 81.2414 445.476 81.0769 445.598C65.5453 457.177 49.9064 473.662 51.4443 492.9C52.6055 507.632 63.4905 516.877 63.6002 516.97C63.7575 517.101 63.7782 517.335 63.6467 517.492C63.5141 517.651 63.2783 517.668 63.1241 517.539Z" fill="white"/>
<path d="M134.929 527.871C134.748 527.871 134.592 527.74 134.563 527.56L124.026 462.031C123.994 461.828 124.131 461.639 124.333 461.606C124.544 461.571 124.726 461.712 124.758 461.913L135.243 527.117L162.776 526.019C162.977 517.995 155.51 515.193 153.768 513.452C153.632 513.354 153.579 513.177 153.639 513.02C160.776 494.198 163.907 471.363 162.944 445.148C161.69 411.803 154.157 384.57 153.302 381.575C153.225 381.42 153.272 381.254 153.405 381.143L181.641 357.695C176.662 356.562 169.817 358.544 162.247 363.345L161.915 363.554C161.833 363.614 161.769 363.643 161.769 363.643C161.584 363.729 161.362 363.65 161.276 363.468C161.189 363.283 161.261 363.066 161.444 362.977C161.452 362.972 161.521 362.926 161.528 362.921L161.849 362.719C170.074 357.504 177.232 355.583 182.538 357.165C182.82 357.248 182.899 357.615 182.67 357.806L154.068 381.557C155.142 385.36 162.45 412.291 163.685 445.121C164.648 471.312 161.534 494.154 154.432 513.017C155.734 514.37 164.048 517.821 163.508 526.401C163.496 526.59 163.342 526.739 163.152 526.746L134.944 527.871C134.938 527.871 134.934 527.871 134.929 527.871Z" fill="white"/>
<path d="M93.3072 503.882C93.2741 503.681 93.4107 503.489 93.6125 503.455C94.4752 503.316 96.5178 503.118 99.7541 502.265C115.846 498.099 128.013 486.684 128.134 486.569C128.283 486.427 128.518 486.435 128.659 486.583C128.8 486.732 128.794 486.967 128.646 487.107C128.522 487.223 116.215 498.77 99.9414 502.983C96.8097 503.807 94.7165 504.029 93.7346 504.188C93.5262 504.219 93.341 504.08 93.3072 503.882Z" fill="white"/>
<path d="M26.8834 501.353C26.0699 501.353 25.3061 501.316 24.6003 501.244C20.051 500.785 20.2269 498.991 22.5055 497.955C25.7594 496.479 27.5769 494.914 28.3769 494.103C13.0002 493.345 2.6162 483.733 0.435493 478.646C-0.67117 476.061 0.405212 474.751 2.82734 475.488C8.63359 477.258 11.5823 477.289 12.6348 477.207C1.61744 453.273 7.80457 440.694 12.4992 435.312C17.7601 429.281 24.9956 427.512 29.4253 428.888C33.9773 430.298 35.706 435.2 29.8021 439.69C25.8619 442.688 20.4665 446.794 20.8112 462.61C20.9416 468.726 22.9629 473.512 26.8193 476.833C34.6706 483.595 47.9702 482.49 51.8617 481.994C52.137 481.963 52.3266 482.207 52.2705 482.446C51.4659 485.878 51.1696 489.396 51.4456 492.899C51.456 493.031 51.397 493.158 51.2883 493.234C43.0871 498.958 33.4173 501.353 26.8834 501.353ZM1.11755 478.354C3.27031 483.375 13.7133 492.942 29.1883 493.393C29.4903 493.402 29.6521 493.745 29.4771 493.982C29.4046 494.081 27.6462 496.439 22.8118 498.63C20.5262 499.67 22.1565 500.252 24.6748 500.505C29.1449 500.966 40.302 499.922 50.6901 492.746C50.4505 489.403 50.7105 486.08 51.4311 482.793C46.9031 483.318 34.0941 484.077 26.3349 477.395C22.3119 473.931 20.2047 468.962 20.0701 462.626C19.7162 446.433 25.5152 442.02 29.3529 439.1C34.7795 434.971 33.138 430.813 29.2059 429.596C25.1053 428.327 18.0561 430.07 13.0581 435.799C8.45247 441.08 2.3885 453.5 13.5197 477.352C13.6175 477.562 13.5015 477.81 13.2755 477.868C13.1637 477.899 10.3796 478.565 2.61103 476.198C0.702406 475.614 0.316292 476.481 1.11755 478.354Z" fill="white"/>
<path d="M137.683 367.88C137.311 365.585 137.689 363.643 138.808 362.113C140.623 359.626 143.713 359.137 143.843 359.118C144.061 359.086 144.234 359.228 144.264 359.429C144.295 359.632 144.156 359.821 143.954 359.851C143.924 359.856 141.031 360.32 139.403 362.555C138.409 363.92 138.077 365.672 138.416 367.762C138.448 367.964 138.311 368.155 138.108 368.188C137.91 368.219 137.717 368.086 137.683 367.88Z" fill="white"/>
<path d="M126.664 359.907C122.356 367.219 126.391 376.532 128.3 382.532C130.481 389.389 131.863 396.5 132.406 403.676C133.119 413.079 130.775 422.591 122.137 423.197C113.392 423.81 109.951 414.526 108.807 405.899C107.719 397.687 107.411 389.373 107.889 381.103C108.2 375.741 108.901 370.209 111.668 365.604C114.434 361 122.228 357.107 130.517 357.653L126.664 359.907Z" fill="#FFB800"/>
<path d="M162.281 362.823C162.281 362.823 179.199 349.766 190.081 364.417C195.818 372.141 204.334 363.63 201.219 357.993C198.327 352.763 190.391 348.927 178.32 351.125L162.281 362.823Z" fill="#FCAA02"/>
<path d="M189.782 364.639C186.927 360.793 183.384 358.554 179.254 357.983C171.734 356.949 164.415 361.757 162.825 362.886L162.499 363.124C162.338 363.242 162.107 363.209 161.984 363.046C161.863 362.883 161.894 362.654 162.054 362.53C162.165 362.445 161.292 363.084 178.1 350.825C178.145 350.793 178.198 350.77 178.253 350.76C191.257 348.395 198.926 353.08 201.543 357.814C204.898 363.885 195.772 372.699 189.782 364.639ZM179.357 357.248C183.69 357.847 187.399 360.185 190.378 364.196C195.832 371.537 203.801 363.431 200.893 358.172C198.403 353.665 191.037 349.211 178.469 351.475L167.92 359.169C171.509 357.606 175.463 356.714 179.357 357.248Z" fill="black"/>
<path d="M192.358 357.66C185.077 352.171 173.971 354.755 173.86 354.781C173.658 354.831 173.461 354.705 173.413 354.507C173.364 354.308 173.487 354.108 173.686 354.06C174.155 353.946 185.241 351.365 192.805 357.068C192.969 357.191 193.001 357.424 192.878 357.587C192.756 357.75 192.522 357.783 192.358 357.66Z" fill="black"/>
<path d="M185.01 338.064C184.005 338.535 182.902 338.783 181.736 338.783C178.735 338.783 176.131 337.133 174.792 334.691C176.813 332.954 178.487 331.404 179.715 330.239C180.769 329.234 182.517 329.693 182.939 331.094L185.01 338.064Z" fill="#FFB800"/>
<path d="M99.8485 502.624C97.9117 503.134 95.9125 503.53 93.8611 503.79C97.7555 496.803 100.39 488.16 98.2137 475.623C98.2137 475.623 105.576 490.586 99.8485 502.624Z" fill="white"/>
<path d="M156.569 464.898C163.212 429.932 153.643 381.428 153.643 381.428L153.653 381.45C153.924 382.397 162.015 410.543 163.316 445.134L156.569 464.898Z" fill="white"/>
<path d="M51.075 492.93C41.1099 499.886 30.0306 501.427 24.6367 500.875C25.0636 500.698 25.5009 500.552 25.9383 500.417C32.1965 498.386 38.465 496.355 44.7231 494.325C46.8786 493.627 49.0653 492.919 51.0021 491.764C51.0229 492.159 51.0438 492.545 51.075 492.93Z" fill="white"/>
<path d="M461.204 182.866C460.999 182.866 460.834 182.7 460.834 182.495C460.834 182.29 460.999 182.125 461.204 182.125C465.799 182.125 469.536 178.388 469.536 173.797C469.536 169.203 465.799 165.466 461.204 165.466C460.999 165.466 460.834 165.3 460.834 165.095C460.834 164.89 460.999 164.725 461.204 164.725C466.207 164.725 470.277 168.794 470.277 173.797C470.277 178.798 466.207 182.866 461.204 182.866Z" fill="white"/>
<path d="M321.268 338.107C321.126 337.959 321.13 337.724 321.277 337.583L350.987 308.975C351.136 308.833 351.371 308.837 351.512 308.984C351.654 309.132 351.65 309.367 351.503 309.509L321.792 338.117C321.643 338.259 321.407 338.253 321.268 338.107Z" fill="black"/>
<path d="M340.09 307.379C337.961 307.379 336.229 305.648 336.229 303.519C336.229 301.391 337.961 299.66 340.09 299.66C342.218 299.66 343.949 301.391 343.949 303.519C343.949 305.648 342.218 307.379 340.09 307.379ZM340.09 300.401C338.37 300.401 336.971 301.8 336.971 303.519C336.971 305.239 338.37 306.638 340.09 306.638C341.809 306.638 343.208 305.239 343.208 303.519C343.208 301.8 341.809 300.401 340.09 300.401Z" fill="black"/>
<path d="M411.555 382.87C399.262 381.461 387.844 378.516 377.44 374.706C380.716 369.488 386.521 366.031 393.126 366.031C402.784 366.031 410.712 373.426 411.555 382.87Z" fill="black"/>
<path d="M372.85 516.194L398.783 524.259L403.977 516.44L372.85 516.194Z" fill="white"/>
<path d="M235.604 516.44L261.055 526.495L267.734 516.44H235.604Z" fill="white"/>
</svg>
