<svg width="259" height="1287" viewBox="0 0 259 1287" fill="none" xmlns="http://www.w3.org/2000/svg">
<g clip-path="url(#clip0_2090_5796)">
<path d="M200.33 1279.34L200.33 1275.35L190.048 1275.35C142.924 1275.35 104.654 1237.07 104.654 1189.95L104.654 472.152L155.205 472.152L155.205 1189.95C155.205 1209.23 170.913 1224.79 190.048 1224.79L200.33 1224.79L200.33 1218.8C200.33 1211.8 205.042 1209.23 210.897 1213.08L254.879 1242.22C260.734 1246.07 260.734 1252.35 254.879 1256.07L210.897 1285.06C205.042 1288.91 200.33 1286.34 200.33 1279.34Z" fill="#D2910B"/>
</g>
<g clip-path="url(#clip1_2090_5796)">
<path d="M59.324 928.365L59.324 925.881L69.6056 925.881C116.73 925.881 155 902.106 155 872.83L155 430L104.449 430L104.449 872.83C104.449 884.806 88.7408 894.476 69.6056 894.476L59.324 894.476L59.324 890.75C59.324 886.403 54.6116 884.806 48.7568 887.202L4.7744 905.211C-1.08039 907.606 -1.08039 911.51 4.7744 913.816L48.7568 931.825C54.6116 934.309 59.324 932.712 59.324 928.365Z" fill="#D2910B"/>
</g>
<g clip-path="url(#clip2_2090_5796)">
<path d="M200.33 542.191L200.33 538.193L190.048 538.193C142.924 538.193 104.654 499.922 104.654 452.798L104.654 5.99999L155.205 6L155.205 452.798C155.205 472.076 170.913 487.642 190.048 487.642L200.33 487.642L200.33 481.644C200.33 474.647 205.042 472.076 210.897 475.932L254.879 505.063C260.734 508.919 260.734 515.202 254.879 518.915L210.897 547.903C205.042 551.759 200.33 549.188 200.33 542.191Z" fill="#D2910B"/>
</g>
<path d="M59.4488 203.347L59.4488 199.349L69.7412 199.349C116.914 199.349 155.225 161.078 155.225 113.954L155.225 25.302C155.225 11.3281 143.897 -4.00219e-07 129.923 -8.93913e-07C115.949 -1.38761e-06 104.621 11.3281 104.621 25.3019L104.621 113.954C104.621 133.232 88.8963 148.798 69.7412 148.798L59.4489 148.798L59.4489 142.8C59.4489 135.803 54.7316 133.232 48.8706 137.088L4.84238 166.076C-1.01852 169.932 -1.01852 176.215 4.84238 179.928L48.8706 208.916C54.7315 212.915 59.4488 210.344 59.4488 203.347Z" fill="#D2910B"/>
<defs>
<clipPath id="clip0_2090_5796">
<rect width="537" height="154" fill="white" transform="translate(259 750) rotate(90)"/>
</clipPath>
<clipPath id="clip1_2090_5796">
<rect width="503" height="154" fill="white" transform="translate(155 430) rotate(90)"/>
</clipPath>
<clipPath id="clip2_2090_5796">
<rect width="462" height="154" fill="white" transform="translate(259 88) rotate(90)"/>
</clipPath>
</defs>
</svg>
