<svg width="174" height="175" viewBox="0 0 174 175" fill="none" xmlns="http://www.w3.org/2000/svg">
<g filter="url(#filter0_d_2008_164)">
<rect x="31.0264" y="12.6245" width="111.947" height="111.947" rx="55.9736" fill="#50AD64"/>
</g>
<path d="M74.3125 53.5V44.4375L63.4375 55.3125H72.5C72.9807 55.3125 73.4417 55.1215 73.7816 54.7816C74.1215 54.4417 74.3125 53.9807 74.3125 53.5Z" fill="white"/>
<path d="M65.25 93.375H92.767C90.0804 91.926 87.9313 89.651 86.6375 86.8862C85.6698 84.9641 85.1728 82.8395 85.1875 80.6875C85.187 78.7832 85.5617 76.8974 86.2902 75.138C87.0187 73.3785 88.0867 71.7798 89.4333 70.4333C90.7798 69.0867 92.3785 68.0187 94.138 67.2902C95.8974 66.5617 97.7832 66.187 99.6875 66.1875C101.559 66.2049 103.407 66.5964 105.125 67.3388V46.25C105.122 45.2894 104.739 44.369 104.06 43.6898C103.381 43.0106 102.461 42.6278 101.5 42.625H77.9375V53.5C77.9359 54.9416 77.3625 56.3237 76.3431 57.3431C75.3237 58.3625 73.9416 58.9359 72.5 58.9375H61.625V89.75C61.6278 90.7106 62.0106 91.631 62.6898 92.3102C63.369 92.9894 64.2894 93.3722 65.25 93.375Z" fill="white"/>
<path d="M104.364 70.9002C102.912 70.1749 101.31 69.8023 99.6874 69.8127C96.8058 69.8211 94.0446 70.9696 92.007 73.0072C89.9693 75.0449 88.8209 77.8061 88.8124 80.6877C88.7936 82.2881 89.167 83.8687 89.8999 85.2915C90.7636 87.1612 92.1439 88.7451 93.878 89.8562C95.6122 90.9673 97.6279 91.5595 99.6874 91.5627C100.731 91.5734 101.769 91.4268 102.769 91.1277L102.986 91.019C105.063 90.3649 106.894 89.1001 108.242 87.3894C109.589 85.6787 110.389 83.6017 110.537 81.4294C110.686 79.2572 110.177 77.0905 109.075 75.2122C107.974 73.3339 106.332 71.8312 104.364 70.9002ZM105.125 82.5002H101.5V86.1252C101.5 86.6059 101.309 87.0669 100.969 87.4068C100.629 87.7468 100.168 87.9377 99.6874 87.9377C99.2067 87.9377 98.7457 87.7468 98.4058 87.4068C98.0659 87.0669 97.8749 86.6059 97.8749 86.1252V82.5002H94.2499C93.7692 82.5002 93.3082 82.3093 92.9683 81.9693C92.6284 81.6294 92.4374 81.1684 92.4374 80.6877C92.4374 80.207 92.6284 79.746 92.9683 79.4061C93.3082 79.0662 93.7692 78.8752 94.2499 78.8752H97.8749V75.2502C97.8749 74.7695 98.0659 74.3085 98.4058 73.9686C98.7457 73.6287 99.2067 73.4377 99.6874 73.4377C100.168 73.4377 100.629 73.6287 100.969 73.9686C101.309 74.3085 101.5 74.7695 101.5 75.2502V78.8752H105.125C105.606 78.8752 106.067 79.0662 106.407 79.4061C106.746 79.746 106.937 80.207 106.937 80.6877C106.937 81.1684 106.746 81.6294 106.407 81.9693C106.067 82.3093 105.606 82.5002 105.125 82.5002Z" fill="white"/>
<defs>
<filter id="filter0_d_2008_164" x="0.0263672" y="0.624512" width="173.947" height="173.947" filterUnits="userSpaceOnUse" color-interpolation-filters="sRGB">
<feFlood flood-opacity="0" result="BackgroundImageFix"/>
<feColorMatrix in="SourceAlpha" type="matrix" values="0 0 0 0 0 0 0 0 0 0 0 0 0 0 0 0 0 0 127 0" result="hardAlpha"/>
<feOffset dy="19"/>
<feGaussianBlur stdDeviation="15.5"/>
<feComposite in2="hardAlpha" operator="out"/>
<feColorMatrix type="matrix" values="0 0 0 0 0.313726 0 0 0 0 0.678431 0 0 0 0 0.392157 0 0 0 0.38 0"/>
<feBlend mode="normal" in2="BackgroundImageFix" result="effect1_dropShadow_2008_164"/>
<feBlend mode="normal" in="SourceGraphic" in2="effect1_dropShadow_2008_164" result="shape"/>
</filter>
</defs>
</svg>
