<svg width="174" height="175" viewBox="0 0 174 175" fill="none" xmlns="http://www.w3.org/2000/svg">
<g filter="url(#filter0_d_2008_181)">
<rect x="31.0264" y="12.6245" width="111.947" height="111.947" rx="55.9736" fill="#FBA45A"/>
</g>
<g clip-path="url(#clip0_2008_181)">
<path d="M84.1479 66.2803H62.5728C60.0518 66.2803 58 68.3309 58 70.852V92.4271C58 94.9481 60.0518 96.9999 62.5728 96.9999H84.1479C86.669 96.9999 88.7196 94.9481 88.7196 92.4271V70.852C88.7196 68.3309 86.669 66.2803 84.1479 66.2803ZM83.011 77.1171L71.5608 88.5661C70.8988 89.2304 69.8223 89.2318 69.1565 88.5661L63.7097 83.1204C63.0466 82.4562 63.0466 81.3793 63.7097 80.715C64.374 80.0519 65.4508 80.0519 66.1151 80.715L70.3592 84.9591L80.6055 74.7128C81.2698 74.0485 82.3466 74.0485 83.0109 74.7128C83.6742 75.376 83.6742 76.4529 83.011 77.1171Z" fill="white"/>
<path d="M102.379 57.1111V78.8494C102.379 81.3252 100.365 83.3406 97.889 83.3406H92.1203V70.8522C92.1203 66.4562 88.5439 62.8798 84.1479 62.8798H71.6594V57.1111C71.6594 54.6355 73.6749 52.6211 76.1506 52.6211H97.8889C100.365 52.6211 102.379 54.6355 102.379 57.1111Z" fill="white"/>
<path d="M116 43.4911V65.2295C116 67.7051 113.984 69.7195 111.509 69.7195H105.78V57.111C105.78 52.7604 102.239 49.2202 97.8889 49.2202H85.2803V43.4911C85.2803 41.0155 87.2946 39 89.7703 39H111.509C113.984 39 116 41.0155 116 43.4911Z" fill="white"/>
</g>
<defs>
<filter id="filter0_d_2008_181" x="0.0263672" y="0.624512" width="173.947" height="173.947" filterUnits="userSpaceOnUse" color-interpolation-filters="sRGB">
<feFlood flood-opacity="0" result="BackgroundImageFix"/>
<feColorMatrix in="SourceAlpha" type="matrix" values="0 0 0 0 0 0 0 0 0 0 0 0 0 0 0 0 0 0 127 0" result="hardAlpha"/>
<feOffset dy="19"/>
<feGaussianBlur stdDeviation="15.5"/>
<feComposite in2="hardAlpha" operator="out"/>
<feColorMatrix type="matrix" values="0 0 0 0 0.984314 0 0 0 0 0.643137 0 0 0 0 0.352941 0 0 0 0.5 0"/>
<feBlend mode="normal" in2="BackgroundImageFix" result="effect1_dropShadow_2008_181"/>
<feBlend mode="normal" in="SourceGraphic" in2="effect1_dropShadow_2008_181" result="shape"/>
</filter>
<clipPath id="clip0_2008_181">
<rect width="58" height="58" fill="white" transform="translate(58 39)"/>
</clipPath>
</defs>
</svg>
