<svg width="174" height="175" viewBox="0 0 174 175" fill="none" xmlns="http://www.w3.org/2000/svg">
<g filter="url(#filter0_d_2008_173)">
<rect x="31.0264" y="12.6245" width="111.947" height="111.947" rx="55.9736" fill="#6AAB21"/>
</g>
<g clip-path="url(#clip0_2008_173)">
<path d="M73.6819 61.5047L62.037 73.147C56.6543 78.5287 56.6543 87.285 62.037 92.6668L62.3277 92.9575C64.9354 95.5638 68.402 96.9998 72.0898 96.9998C75.7776 96.9998 79.2447 95.5638 81.8519 92.9575L93.0566 81.7555C92.2357 81.8741 91.4012 81.9351 90.5569 81.9351C88.2341 81.9351 85.9822 81.4776 83.9034 80.6059L76.8458 87.6616C75.5754 88.9316 73.8864 89.6312 72.0898 89.6312C70.2937 89.6312 68.6046 88.932 67.3342 87.662C66.0655 86.3938 65.3668 84.7052 65.3668 82.9069C65.3668 81.109 66.0655 79.4199 67.3338 78.1517L78.688 66.8006C79.9584 65.5302 81.6475 64.831 83.444 64.831C85.1813 64.831 86.8168 65.4863 88.0717 66.678C88.1173 66.7152 88.1611 66.7546 88.2036 66.797C88.8324 67.4254 89.6679 67.7714 90.5569 67.7714C91.4454 67.7714 92.2813 67.4254 92.9097 66.797L95.4518 64.2557C94.8983 63.3681 94.2447 62.5428 93.4969 61.7954L93.2066 61.5051C90.5989 58.8979 87.1319 57.4624 83.4445 57.4624C79.7566 57.4624 76.2896 58.8979 73.6819 61.5047Z" fill="white"/>
<path d="M111.964 62.8528C114.567 60.2509 116 56.7847 116 53.0929C116 49.4015 114.566 45.9354 111.964 43.333L111.673 43.0427C109.066 40.4359 105.599 39 101.911 39C98.2233 39 94.7563 40.4359 92.1486 43.0427L80.9439 54.2443C81.7648 54.1257 82.5998 54.0646 83.4441 54.0646C85.7663 54.0646 88.0182 54.5226 90.0971 55.3939L97.1546 48.3382C98.4251 47.0682 100.114 46.3686 101.911 46.3686C103.707 46.3686 105.396 47.0677 106.667 48.3382C107.935 49.6064 108.634 51.295 108.634 53.0929C108.634 54.8912 107.935 56.5798 106.667 57.8476L95.3125 69.1992C94.0421 70.4696 92.353 71.1688 90.5564 71.1688C88.8196 71.1688 87.1841 70.5134 85.9292 69.3218C85.8836 69.2846 85.8393 69.2452 85.7969 69.2027C85.1685 68.5744 84.3326 68.2283 83.4441 68.2283C82.5551 68.2283 81.7196 68.5744 81.0913 69.2027L78.5491 71.7445C79.1022 72.6317 79.7558 73.4565 80.5036 74.2044L80.7943 74.4951C83.402 77.1019 86.8686 78.5374 90.5564 78.5374C94.2443 78.5374 97.7113 77.1019 100.319 74.4951L111.964 62.8528Z" fill="white"/>
</g>
<defs>
<filter id="filter0_d_2008_173" x="0.0263672" y="0.624512" width="173.947" height="173.947" filterUnits="userSpaceOnUse" color-interpolation-filters="sRGB">
<feFlood flood-opacity="0" result="BackgroundImageFix"/>
<feColorMatrix in="SourceAlpha" type="matrix" values="0 0 0 0 0 0 0 0 0 0 0 0 0 0 0 0 0 0 127 0" result="hardAlpha"/>
<feOffset dy="19"/>
<feGaussianBlur stdDeviation="15.5"/>
<feComposite in2="hardAlpha" operator="out"/>
<feColorMatrix type="matrix" values="0 0 0 0 0.415686 0 0 0 0 0.670588 0 0 0 0 0.129412 0 0 0 0.5 0"/>
<feBlend mode="normal" in2="BackgroundImageFix" result="effect1_dropShadow_2008_173"/>
<feBlend mode="normal" in="SourceGraphic" in2="effect1_dropShadow_2008_173" result="shape"/>
</filter>
<clipPath id="clip0_2008_173">
<rect width="58" height="58" fill="white" transform="translate(58 39)"/>
</clipPath>
</defs>
</svg>
