<svg width="30" height="30" viewBox="0 0 30 30" fill="none" xmlns="http://www.w3.org/2000/svg">
<g clip-path="url(#clip0_2008_97)">
<path d="M15 30C23.2843 30 30 23.2843 30 15C30 6.71573 23.2843 0 15 0C6.71573 0 0 6.71573 0 15C0 23.2843 6.71573 30 15 30Z" fill="#5F7EDD"/>
<path d="M14.9985 19.0859L9.9585 16.1084L14.9985 23.2124L20.043 16.1084L14.9985 19.0859Z" fill="white"/>
<path d="M20.04 15.1531L14.9985 18.1321L9.95703 15.1531L14.9985 6.7876L20.04 15.1531Z" fill="white"/>
<path d="M20.04 15.1531L14.9985 12.8611V6.7876L20.04 15.1531Z" fill="#C1CCF7"/>
<path d="M20.043 16.1084L14.9985 23.2124V19.0859L20.043 16.1084Z" fill="#C1CCF7"/>
<path d="M14.9985 12.8613V18.1323L9.9585 15.1533L14.9985 12.8613Z" fill="#C1CCF7"/>
<path d="M20.04 15.1528L14.9985 18.1318V12.8608L20.04 15.1528Z" fill="#8198EE"/>
</g>
<defs>
<clipPath id="clip0_2008_97">
<rect width="30" height="30" fill="white"/>
</clipPath>
</defs>
</svg>
