<svg width="30" height="30" viewBox="0 0 30 30" fill="none" xmlns="http://www.w3.org/2000/svg">
<path d="M15 1.25C7.375 1.25 1.25 7.375 1.25 15C1.25 22.625 7.375 28.75 15 28.75C22.625 28.75 28.75 22.625 28.75 15C28.75 7.375 22.625 1.25 15 1.25ZM11.5 9.5L12.875 8.125L15 6L17.125 8.125L18.5 9.5L20.5 11.5L18.375 13.625L16.375 11.625L15 10.25L13.625 11.625L11.625 13.625L9.5 11.5L11.5 9.5ZM17 15L15 17L13 15L15 13L17 15ZM6 15L8.125 12.875L10.25 15L8.125 17.125L6 15ZM15 24L12.875 21.875L11.5 20.5L9.5 18.5L11.625 16.375L13.625 18.375L15 19.75L16.375 18.375L18.375 16.375L20.5 18.5L15 24ZM21.875 17.125L19.75 15L21.875 12.875L24 15L21.875 17.125Z" fill="#F0B90B"/>
</svg>
