<svg width="30" height="30" viewBox="0 0 30 30" fill="none" xmlns="http://www.w3.org/2000/svg">
<g clip-path="url(#clip0_2008_117)">
<path d="M15 30C23.2843 30 30 23.2843 30 15C30 6.71573 23.2843 0 15 0C6.71573 0 0 6.71573 0 15C0 23.2843 6.71573 30 15 30Z" fill="#59AF99"/>
<path d="M16.5571 13.1534V11.3819H20.5876V8.5874H9.4021V11.3819H13.4431V13.1534C10.0576 13.3169 7.5166 13.9964 7.5166 14.8034C7.5166 15.6104 10.0546 16.2929 13.4431 16.4534V22.3034H16.5571V16.4534C19.9426 16.2914 22.4836 15.6119 22.4836 14.8034C22.4836 13.9949 19.9501 13.3169 16.5571 13.1534ZM15.0001 15.9374C11.3341 15.9374 8.3626 15.3704 8.3626 14.6879C8.3626 14.1014 10.5271 13.6079 13.4401 13.4759V15.4769C13.9411 15.4994 14.4616 15.5129 14.9971 15.5129C15.5326 15.5129 16.0561 15.4994 16.5541 15.4769V13.4759C19.4671 13.6079 21.6316 14.1014 21.6316 14.6879C21.6376 15.3779 18.6661 15.9374 15.0001 15.9374Z" fill="white"/>
</g>
<defs>
<clipPath id="clip0_2008_117">
<rect width="30" height="30" fill="white"/>
</clipPath>
</defs>
</svg>
