<svg width="30" height="30" viewBox="0 0 30 30" fill="none" xmlns="http://www.w3.org/2000/svg">
<g clip-path="url(#clip0_2008_126)">
<path d="M26.6549 13.0001L26.8949 12.7601C27.2695 12.3844 27.4799 11.8755 27.4799 11.3451C27.4799 10.8146 27.2695 10.3057 26.8949 9.93005L18.0549 1.08505C17.68 0.711026 17.172 0.500977 16.6424 0.500977C16.1128 0.500977 15.6049 0.711026 15.2299 1.08505L1.08494 15.2351C0.710303 15.6117 0.5 16.1213 0.5 16.6526C0.5 17.1838 0.710303 17.6934 1.08494 18.0701L5.49994 22.4851L26.6549 13.0001Z" fill="#50AD64"/>
<path d="M1.42773 18.4126L18.4028 1.43753L20.5224 3.55711L3.54732 20.5322L1.42773 18.4126Z" fill="#449956"/>
<path d="M27.5 13H7.5C6.39543 13 5.5 13.8954 5.5 15V27.5C5.5 28.6046 6.39543 29.5 7.5 29.5H27.5C28.6046 29.5 29.5 28.6046 29.5 27.5V15C29.5 13.8954 28.6046 13 27.5 13Z" fill="#5FC77D"/>
<path d="M11 15.5H8C7.72386 15.5 7.5 15.7239 7.5 16V18C7.5 18.2761 7.72386 18.5 8 18.5H11C11.2761 18.5 11.5 18.2761 11.5 18V16C11.5 15.7239 11.2761 15.5 11 15.5Z" fill="#FDE05E"/>
<path d="M7.5 22C7.36739 22 7.24021 21.9473 7.14645 21.8536C7.05268 21.7598 7 21.6326 7 21.5V20.5C7 20.3674 7.05268 20.2402 7.14645 20.1464C7.24021 20.0527 7.36739 20 7.5 20C7.63261 20 7.75979 20.0527 7.85355 20.1464C7.94732 20.2402 8 20.3674 8 20.5V21.5C8 21.6326 7.94732 21.7598 7.85355 21.8536C7.75979 21.9473 7.63261 22 7.5 22Z" fill="#E1EFFF"/>
<path d="M9.5 22C9.36739 22 9.24021 21.9473 9.14645 21.8536C9.05268 21.7598 9 21.6326 9 21.5V20.5C9 20.3674 9.05268 20.2402 9.14645 20.1464C9.24021 20.0527 9.36739 20 9.5 20C9.63261 20 9.75979 20.0527 9.85355 20.1464C9.94732 20.2402 10 20.3674 10 20.5V21.5C10 21.6326 9.94732 21.7598 9.85355 21.8536C9.75979 21.9473 9.63261 22 9.5 22Z" fill="#E1EFFF"/>
<path d="M11.5 22C11.3674 22 11.2402 21.9473 11.1464 21.8536C11.0527 21.7598 11 21.6326 11 21.5V20.5C11 20.3674 11.0527 20.2402 11.1464 20.1464C11.2402 20.0527 11.3674 20 11.5 20C11.6326 20 11.7598 20.0527 11.8536 20.1464C11.9473 20.2402 12 20.3674 12 20.5V21.5C12 21.6326 11.9473 21.7598 11.8536 21.8536C11.7598 21.9473 11.6326 22 11.5 22Z" fill="#E1EFFF"/>
<path d="M13.5 22C13.3674 22 13.2402 21.9473 13.1464 21.8536C13.0527 21.7598 13 21.6326 13 21.5V20.5C13 20.3674 13.0527 20.2402 13.1464 20.1464C13.2402 20.0527 13.3674 20 13.5 20C13.6326 20 13.7598 20.0527 13.8536 20.1464C13.9473 20.2402 14 20.3674 14 20.5V21.5C14 21.6326 13.9473 21.7598 13.8536 21.8536C13.7598 21.9473 13.6326 22 13.5 22Z" fill="#E1EFFF"/>
<path d="M15.5 22C15.3674 22 15.2402 21.9473 15.1464 21.8536C15.0527 21.7598 15 21.6326 15 21.5V20.5C15 20.3674 15.0527 20.2402 15.1464 20.1464C15.2402 20.0527 15.3674 20 15.5 20C15.6326 20 15.7598 20.0527 15.8536 20.1464C15.9473 20.2402 16 20.3674 16 20.5V21.5C16 21.6326 15.9473 21.7598 15.8536 21.8536C15.7598 21.9473 15.6326 22 15.5 22Z" fill="#E1EFFF"/>
<path d="M19.5 22C19.3674 22 19.2402 21.9473 19.1464 21.8536C19.0527 21.7598 19 21.6326 19 21.5V20.5C19 20.3674 19.0527 20.2402 19.1464 20.1464C19.2402 20.0527 19.3674 20 19.5 20C19.6326 20 19.7598 20.0527 19.8536 20.1464C19.9473 20.2402 20 20.3674 20 20.5V21.5C20 21.6326 19.9473 21.7598 19.8536 21.8536C19.7598 21.9473 19.6326 22 19.5 22Z" fill="#E1EFFF"/>
<path d="M21.5 22C21.3674 22 21.2402 21.9473 21.1464 21.8536C21.0527 21.7598 21 21.6326 21 21.5V20.5C21 20.3674 21.0527 20.2402 21.1464 20.1464C21.2402 20.0527 21.3674 20 21.5 20C21.6326 20 21.7598 20.0527 21.8536 20.1464C21.9473 20.2402 22 20.3674 22 20.5V21.5C22 21.6326 21.9473 21.7598 21.8536 21.8536C21.7598 21.9473 21.6326 22 21.5 22Z" fill="#E1EFFF"/>
<path d="M23.5 22C23.3674 22 23.2402 21.9473 23.1464 21.8536C23.0527 21.7598 23 21.6326 23 21.5V20.5C23 20.3674 23.0527 20.2402 23.1464 20.1464C23.2402 20.0527 23.3674 20 23.5 20C23.6326 20 23.7598 20.0527 23.8536 20.1464C23.9473 20.2402 24 20.3674 24 20.5V21.5C24 21.6326 23.9473 21.7598 23.8536 21.8536C23.7598 21.9473 23.6326 22 23.5 22Z" fill="#E1EFFF"/>
<path d="M25.5 22C25.3674 22 25.2402 21.9473 25.1464 21.8536C25.0527 21.7598 25 21.6326 25 21.5V20.5C25 20.3674 25.0527 20.2402 25.1464 20.1464C25.2402 20.0527 25.3674 20 25.5 20C25.6326 20 25.7598 20.0527 25.8536 20.1464C25.9473 20.2402 26 20.3674 26 20.5V21.5C26 21.6326 25.9473 21.7598 25.8536 21.8536C25.7598 21.9473 25.6326 22 25.5 22Z" fill="#E1EFFF"/>
<path d="M9.5 24H7.5C7.36739 24 7.24021 23.9473 7.14645 23.8536C7.05268 23.7598 7 23.6326 7 23.5C7 23.3674 7.05268 23.2402 7.14645 23.1464C7.24021 23.0527 7.36739 23 7.5 23H9.5C9.63261 23 9.75979 23.0527 9.85355 23.1464C9.94732 23.2402 10 23.3674 10 23.5C10 23.6326 9.94732 23.7598 9.85355 23.8536C9.75979 23.9473 9.63261 24 9.5 24Z" fill="#50AD64"/>
<path d="M13.5 24H11.5C11.3674 24 11.2402 23.9473 11.1464 23.8536C11.0527 23.7598 11 23.6326 11 23.5C11 23.3674 11.0527 23.2402 11.1464 23.1464C11.2402 23.0527 11.3674 23 11.5 23H13.5C13.6326 23 13.7598 23.0527 13.8536 23.1464C13.9473 23.2402 14 23.3674 14 23.5C14 23.6326 13.9473 23.7598 13.8536 23.8536C13.7598 23.9473 13.6326 24 13.5 24Z" fill="#50AD64"/>
<path d="M9.5 26H7.5C7.36739 26 7.24021 25.9473 7.14645 25.8536C7.05268 25.7598 7 25.6326 7 25.5C7 25.3674 7.05268 25.2402 7.14645 25.1464C7.24021 25.0527 7.36739 25 7.5 25H9.5C9.63261 25 9.75979 25.0527 9.85355 25.1464C9.94732 25.2402 10 25.3674 10 25.5C10 25.6326 9.94732 25.7598 9.85355 25.8536C9.75979 25.9473 9.63261 26 9.5 26Z" fill="#50AD64"/>
<path d="M13.5 26H11.5C11.3674 26 11.2402 25.9473 11.1464 25.8536C11.0527 25.7598 11 25.6326 11 25.5C11 25.3674 11.0527 25.2402 11.1464 25.1464C11.2402 25.0527 11.3674 25 11.5 25H13.5C13.6326 25 13.7598 25.0527 13.8536 25.1464C13.9473 25.2402 14 25.3674 14 25.5C14 25.6326 13.9473 25.7598 13.8536 25.8536C13.7598 25.9473 13.6326 26 13.5 26Z" fill="#50AD64"/>
<path d="M17.5 24H15.5C15.3674 24 15.2402 23.9473 15.1464 23.8536C15.0527 23.7598 15 23.6326 15 23.5C15 23.3674 15.0527 23.2402 15.1464 23.1464C15.2402 23.0527 15.3674 23 15.5 23H17.5C17.6326 23 17.7598 23.0527 17.8536 23.1464C17.9473 23.2402 18 23.3674 18 23.5C18 23.6326 17.9473 23.7598 17.8536 23.8536C17.7598 23.9473 17.6326 24 17.5 24Z" fill="#50AD64"/>
</g>
<defs>
<clipPath id="clip0_2008_126">
<rect width="30" height="30" fill="white"/>
</clipPath>
</defs>
</svg>
