<svg width="80" height="80" viewBox="0 0 80 80" fill="none" xmlns="http://www.w3.org/2000/svg">
<circle cx="40" cy="40" r="40" fill="#E9AB2E"/>
<path d="M44.6875 43.2813V46.4063C44.6875 50.7188 48.1875 54.2188 52.5 54.2188H58.75V55.7813C58.75 58.3594 56.6406 60.4688 54.0625 60.4688H22.8125C20.2344 60.4688 18.125 58.3594 18.125 55.7813V33.9063C18.125 31.3125 20.2344 29.2188 22.8125 29.2188H54.0625C56.6406 29.2188 58.75 31.3125 58.75 33.9063V35.4688H52.5C48.1875 35.4688 44.6875 38.9688 44.6875 43.2813ZM63.4375 43.2813V46.4063C63.4375 47.7813 62.8281 49.0313 61.875 49.8906C61.0469 50.6406 59.9375 51.0938 58.75 51.0938H52.5C49.9219 51.0938 47.8125 48.9844 47.8125 46.4063V43.2813C47.8125 40.6875 49.9219 38.5938 52.5 38.5938H58.75C59.9375 38.5938 61.0469 39.0469 61.875 39.7969C62.8281 40.6406 63.4375 41.8906 63.4375 43.2813ZM55.625 44.8438C55.625 43.9844 54.9219 43.2813 54.0625 43.2813C53.2031 43.2813 52.5 43.9844 52.5 44.8438C52.5 45.7031 53.2031 46.4063 54.0625 46.4063C54.9219 46.4063 55.625 45.7031 55.625 44.8438ZM50.3281 22.9375C49.9375 21.6094 49.0156 20.5313 47.7656 19.9531C46.5156 19.3906 45.0781 19.3906 43.8281 19.9688L30.7188 26.0938H51.2344L50.3281 22.9375Z" fill="white"/>
</svg>
