<svg width="80" height="80" viewBox="0 0 80 80" fill="none" xmlns="http://www.w3.org/2000/svg">
<circle cx="40" cy="40" r="40" fill="#E9AB2E"/>
<g clip-path="url(#clip0_4001_5)">
<path d="M40 15.5859C26.5165 15.5859 15.5859 26.5165 15.5859 40C15.5859 53.4835 26.5165 64.4141 40 64.4141C53.4835 64.4141 64.4141 53.4835 64.4141 40C64.4141 26.5165 53.4835 15.5859 40 15.5859ZM42.823 52.4775V55.0447H37.35V52.4926C32.8877 51.6788 30.1234 48.7433 30.1234 44.2992H37.127C37.127 45.9571 38.4819 46.7852 39.998 46.7852C41.4198 46.7852 42.7747 46.0615 42.7747 44.7977C42.7747 43.2629 40.8736 42.818 38.543 42.2419C34.9842 41.3575 30.4529 40.2588 30.4529 34.6735C30.4529 30.6965 32.918 28.116 37.1039 27.3675V24.9554H42.577V27.3926C46.7371 28.2041 49.0823 30.9456 49.0823 35.0264L42.2818 35.0417C42.2818 33.6036 41.1311 32.9012 39.7249 32.9012C38.5032 32.9012 37.3368 33.404 37.3368 34.4637C37.3368 35.8678 39.1803 36.328 41.5149 36.9199C45.1415 37.8563 49.8771 39.0439 49.8771 44.6624C49.8769 49.049 47.0441 51.6953 42.823 52.4775Z" fill="white"/>
</g>
<defs>
<clipPath id="clip0_4001_5">
<rect width="50" height="50" fill="white" transform="translate(15 15)"/>
</clipPath>
</defs>
</svg>
