<svg width="80" height="80" viewBox="0 0 80 80" fill="none" xmlns="http://www.w3.org/2000/svg">
<circle cx="40" cy="40" r="40" fill="#E9AB2E"/>
<g clip-path="url(#clip0_4001_6)">
<path d="M30.1749 30.8022L26.7094 31.07C25.7451 31.1445 24.8863 31.6499 24.353 32.4565L20.3564 38.5012C19.952 39.1129 19.8877 39.8784 20.1843 40.549C20.481 41.2197 21.0908 41.687 21.8154 41.7993L24.9884 42.2907C25.7307 38.3516 27.5075 34.4223 30.1749 30.8022Z" fill="white"/>
<path d="M37.709 55.0116L38.2005 58.1847C38.3127 58.9093 38.7801 59.519 39.4506 59.8157C39.7296 59.9391 40.0249 60 40.3187 60C40.7315 60 41.1413 59.8798 41.4986 59.6436L47.5434 55.647C48.35 55.1137 48.8554 54.2548 48.9298 53.2906L49.1975 49.8252C45.5774 52.4926 41.6481 54.2695 37.709 55.0116Z" fill="white"/>
<path d="M36.5158 52.8121C36.6259 52.8121 36.7367 52.803 36.8473 52.7846C38.4976 52.5086 40.0882 52.0438 41.6055 51.4353L28.5642 38.394C27.9558 39.9113 27.4909 41.5019 27.215 43.1523C27.1063 43.8028 27.3245 44.4656 27.7908 44.932L35.0676 52.2088C35.4548 52.5959 35.9774 52.8121 36.5158 52.8121Z" fill="white"/>
<path d="M56.8105 37.7345C60.0018 31.5647 60.12 25.0447 59.9532 21.9869C59.8961 20.9392 59.0608 20.1039 58.013 20.0468C57.5151 20.0196 56.9251 20 56.26 20C52.8408 20 47.4306 20.5179 42.2655 23.1895C38.1607 25.3127 32.7781 29.9877 29.6025 36.1316C29.64 36.1609 29.6767 36.192 29.7112 36.2265L43.7736 50.2889C43.8081 50.3234 43.8391 50.36 43.8684 50.3975C50.0123 47.2218 54.6873 41.8393 56.8105 37.7345ZM43.2575 28.4562C45.5419 26.1717 49.2592 26.1715 51.5438 28.4562C52.6505 29.5628 53.2599 31.0343 53.2599 32.5994C53.2599 34.1644 52.6505 35.6359 51.5438 36.7425C50.4017 37.8846 48.9009 38.4558 47.4007 38.4559C45.9 38.456 44.3999 37.8849 43.2575 36.7425C42.1508 35.6359 41.5413 34.1644 41.5413 32.5994C41.5413 31.0343 42.1508 29.5628 43.2575 28.4562Z" fill="white"/>
<path d="M44.9145 35.0853C46.2852 36.456 48.5156 36.4561 49.8863 35.0853C50.5503 34.4212 50.916 33.5384 50.916 32.5994C50.916 31.6603 50.5503 30.7775 49.8863 30.1135C49.201 29.4281 48.3007 29.0854 47.4004 29.0854C46.5002 29.0854 45.5998 29.4281 44.9145 30.1135C44.2505 30.7775 43.8848 31.6603 43.8848 32.5994C43.8848 33.5384 44.2505 34.4213 44.9145 35.0853Z" fill="white"/>
<path d="M21.1954 52.9637C21.4953 52.9637 21.7952 52.8494 22.0239 52.6205L25.85 48.7945C26.3076 48.3368 26.3076 47.5948 25.85 47.1372C25.3924 46.6795 24.6504 46.6795 24.1927 47.1372L20.3667 50.9632C19.909 51.4209 19.909 52.1628 20.3667 52.6205C20.5955 52.8493 20.8954 52.9637 21.1954 52.9637Z" fill="white"/>
<path d="M29.3564 50.6435C28.8988 50.1859 28.1568 50.1859 27.6991 50.6435L20.3432 57.9994C19.8856 58.4571 19.8856 59.199 20.3432 59.6567C20.5721 59.8855 20.872 59.9999 21.1719 59.9999C21.4718 59.9999 21.7718 59.8855 22.0005 59.6566L29.3563 52.3008C29.814 51.8431 29.814 51.1012 29.3564 50.6435Z" fill="white"/>
<path d="M31.2053 54.1499L27.3794 57.9759C26.9217 58.4336 26.9217 59.1755 27.3794 59.6332C27.6082 59.862 27.9081 59.9764 28.208 59.9764C28.5078 59.9764 28.8078 59.8621 29.0366 59.6332L32.8626 55.8071C33.3202 55.3495 33.3202 54.6075 32.8626 54.1499C32.405 53.6922 31.663 53.6922 31.2053 54.1499Z" fill="white"/>
</g>
<defs>
<clipPath id="clip0_4001_6">
<rect width="40" height="40" fill="white" transform="translate(20 20)"/>
</clipPath>
</defs>
</svg>
